<?xml version="1.0" encoding="UTF-8"?>
<svg width="1440px" height="4448px" viewBox="0 0 1440 4448" version="1.1" xmlns="http://www.w3.org/2000/svg" xmlns:xlink="http://www.w3.org/1999/xlink">
    <!-- Generator: Sketch 51.1 (57501) - http://www.bohemiancoding.com/sketch -->
    <title>background</title>
    <desc>Created with Sketch.</desc>
    <defs>
        <rect id="path-1" x="0" y="0" width="1440" height="127"></rect>
        <filter x="-0.5%" y="-0.6%" width="101.0%" height="101.7%" filterUnits="objectBoundingBox" id="filter-3">
            <feOffset dx="0" dy="2" in="SourceAlpha" result="shadowOffsetOuter1"></feOffset>
            <feGaussianBlur stdDeviation="2" in="shadowOffsetOuter1" result="shadowBlurOuter1"></feGaussianBlur>
            <feColorMatrix values="0 0 0 0 0   0 0 0 0 0   0 0 0 0 0  0 0 0 0.5 0" type="matrix" in="shadowBlurOuter1" result="shadowMatrixOuter1"></feColorMatrix>
            <feMerge>
                <feMergeNode in="shadowMatrixOuter1"></feMergeNode>
                <feMergeNode in="SourceGraphic"></feMergeNode>
            </feMerge>
        </filter>
        <rect id="path-4" x="0" y="0" width="1440" height="846"></rect>
        <linearGradient x1="-40.2923489%" y1="140.397749%" x2="97.2257663%" y2="5.2321624%" id="linearGradient-6">
            <stop stop-color="#87AEFF" offset="0%"></stop>
            <stop stop-color="#313B50" stop-opacity="0.103657156" offset="100%"></stop>
        </linearGradient>
        <linearGradient x1="142.57804%" y1="128.304011%" x2="31.7482407%" y2="23.7952811%" id="linearGradient-7">
            <stop stop-color="#92B5FF" offset="0%"></stop>
            <stop stop-color="#313B50" stop-opacity="0.103657156" offset="100%"></stop>
        </linearGradient>
        <linearGradient x1="0%" y1="0%" x2="74.5990688%" y2="47.9291185%" id="linearGradient-8">
            <stop stop-color="#F46A52" offset="0%"></stop>
            <stop stop-color="#F97433" offset="68.3652211%"></stop>
            <stop stop-color="#F76323" stop-opacity="0.358072917" offset="100%"></stop>
        </linearGradient>
        <path d="M2,0 L1441.9658,0 L1441.9658,574.835385 L1441.9658,746.06712 C1441.9658,801.706823 1441.9658,837.556399 1441.9658,853.61585 C1441.9658,869.858089 1442,877.859921 1442,882.572656 C1442,885.788736 1442,886.445942 1442,886.963616 C1423.94747,893.171395 1398.24775,891.3505 1363.90399,882.572656 C1197.71355,840.09642 1164.20422,801.42108 1003.76977,821.374165 C830.378347,842.938696 728.812912,746.06712 449.113798,772.17032 C262.647721,789.572453 113.609789,774.413447 2,726.693302 L2,0 Z" id="path-9"></path>
        <path d="M2,0 L1441.9658,0 L1441.9658,574.835385 L1441.9658,746.06712 C1441.9658,801.706823 1441.9658,837.556399 1441.9658,853.61585 C1441.9658,869.858089 1442,877.859921 1442,882.572656 C1442,885.788736 1442,886.445942 1442,886.963616 C1423.94747,893.171395 1398.24775,891.3505 1363.90399,882.572656 C1197.71355,840.09642 1164.20422,801.42108 1003.76977,821.374165 C830.378347,842.938696 728.812912,746.06712 449.113798,772.17032 C262.647721,789.572453 113.609789,774.413447 2,726.693302 L2,0 Z" id="path-11"></path>
        <linearGradient x1="17.1128654%" y1="16.0889494%" x2="100%" y2="100%" id="linearGradient-13">
            <stop stop-color="#F9782F" offset="0%"></stop>
            <stop stop-color="#F9842E" offset="100%"></stop>
        </linearGradient>
    </defs>
    <g id="Page-1" stroke="none" stroke-width="1" fill="none" fill-rule="evenodd">
        <g id="Home-(bg-export)">
            <g id="background" transform="translate(-2.000000, 0.000000)">
                <g id="Group">
                    <g id="Pirlo-vector-WPAP">
                        <rect id="Rectangle-25" fill="#FEFEFE" fill-rule="nonzero" x="2" y="0" width="1440" height="4448"></rect>
                        <g id="bg-footer" transform="translate(2.000000, 4321.000000)">
                            <mask id="mask-2" fill="white">
                                <use xlink:href="#path-1"></use>
                            </mask>
                            <use id="Mask" fill="#313B50" xlink:href="#path-1"></use>
                            <path d="M833.854677,986.880078 C1122.93987,812.75211 406.650943,394.928792 531.144201,148.599058 C614.139705,-15.6207642 945.458676,-23.2562237 1525.10111,125.69268 L1525.10111,1320 L880.806907,1345.6535 C656.781959,1222.55653 641.131216,1102.96539 833.854677,986.880078 Z" id="Path-2" fill="#5B6885" opacity="0.100000001" mask="url(#mask-2)"></path>
                        </g>
                        <g id="bg-kerjakan" filter="url(#filter-3)" transform="translate(2.000000, 2400.000000)">
                            <mask id="mask-5" fill="white">
                                <use xlink:href="#path-4"></use>
                            </mask>
                            <use id="Mask" fill="#313B50" xlink:href="#path-4"></use>
                            <path d="M-113.55516,210.162766 C46.1214175,121.085928 171.17151,107.273744 261.595116,168.726213 C455.572034,300.554186 251.485871,635.178616 387.089468,710.798139 C615.603563,838.229323 1027.22312,700.576119 1245.19725,658.547472 C1410.2258,626.727518 1520.53607,733.678631 1576.12807,979.400812 L1576.12807,1186 L-5.68434189e-14,1157.68444 L-113.55516,210.162766 Z" id="Path-7" fill="#5B6885" opacity="0.151618304" mask="url(#mask-5)"></path>
                            <path d="M833.854677,836.880078 C1122.93987,662.75211 406.650943,244.928792 531.144201,-1.40094158 C614.139705,-165.620764 945.458676,-173.256224 1525.10111,-24.3073198 L1525.10111,1170 L880.806907,1195.6535 C656.781959,1072.55653 641.131216,952.96539 833.854677,836.880078 Z" id="Path-2" fill="#5B6885" opacity="0.201785714" mask="url(#mask-5)"></path>
                            <path d="M220.491021,-34.3667735 C223.408191,16.9696417 356.427861,36.9128914 391.108694,76.0180915 C428.90678,118.638224 422.751465,178.289875 502.267262,180.435991 C603.916483,183.179483 727.930348,111.578561 874.308858,-34.3667735 C678.719576,-114.903066 548.298759,-156.051786 483.046406,-157.812934 C385.167876,-160.454656 214.394472,-141.653928 220.491021,-34.3667735 Z" id="Path-6" fill="#5B6885" opacity="0.100000001" mask="url(#mask-5)"></path>
                        </g>
                        <g id="bg-fitur" transform="translate(0.000000, 1172.000000)">
                            <path d="M1442,102.405191 C1358.08535,-27.1083263 1256.2565,-33.7734484 1136.51343,82.4098246 C969.422934,244.532945 716.759229,316.345807 593.424668,364.627641 C294.809854,481.526511 506.819473,843.104812 245.383468,941.291389 C71.092798,1006.74911 -10.0350246,1103.9558 2,1232.91147 L1442,1232.91147 L1442,102.405191 Z" id="Path-3" fill="url(#linearGradient-6)" opacity="0.0500000007"></path>
                            <path d="M1.60632049,670.470155 C1.60632049,462.864435 496.599599,437.170877 630.49554,503.982975 C926.013235,651.441944 760.771758,954.230322 956.654164,1071.07211 C1012.07506,1104.13009 1128.53315,959.945945 1251.16551,922.595792 C1298.21078,908.267208 1442,907.330197 1442,941.599217 C1442,983.557116 1442,1079.08582 1442,1228.18532 L1.60632049,1228.18532 C1.60632049,994.779025 1.60632049,808.873969 1.60632049,670.470155 Z" id="Path-9" fill="url(#linearGradient-7)" opacity="0.100000001"></path>
                        </g>
                        <mask id="mask-10" fill="white">
                            <use xlink:href="#path-9"></use>
                        </mask>
                        <use id="Mask-Copy-7" fill="url(#linearGradient-8)" xlink:href="#path-9"></use>
                        <rect id="Rectangle-path" fill="#F66222" mask="url(#mask-10)" x="438" y="-3" width="1009" height="896"></rect>
                        <path d="M874.9768,148.507085 C1098.38677,158.690914 1208.803,46.1555384 1321.70812,172.329877 C1336.90025,189.307465 1390.89742,184.67673 1442.19443,181.621418 C1452.63792,180.999391 1442.60679,188.669923 1442.19443,201.571095 C1441.44092,225.145007 1442.19443,266.653855 1442.19443,310.272249 C1442.19443,347.956989 1442.99497,387.761735 1442.19443,420.945469 C1441.83572,435.814661 1448.72933,449.326513 1442.00104,460.770885 C1411.69369,512.321673 1385.47668,555.538724 1380.92066,576.644043 C1363.52724,657.217276 1276.73507,627.343496 1261.6175,701.166738 C1246.49993,774.989979 1189.68789,787.238946 1261.6175,757.64621 C1333.54711,728.053474 1422.51897,638.17472 1441.05604,627.343496 C1445.39144,624.810315 1442,632.887292 1442,651.662466 C1442,675.003884 1441.68535,746.116395 1441.05604,865 L799.090434,865 C697.665741,815.6437 649.416341,770.477839 654.342232,729.502418 C673.728467,568.240426 855.025452,399.189268 856.673443,383.629508 C860.087597,351.394237 651.566835,138.323256 874.9768,148.507085 Z" id="Path-4" fill="#F87726" opacity="0.819999993" mask="url(#mask-10)"></path>
                        <g id="_2598677852816" mask="url(#mask-10)">
                            <g transform="translate(636.000000, 133.000000)">
                                <polygon id="Shape" fill="#A3CA28" points="298.52809 778.155616 290.225102 647.571042 353.206305 697.158842 527.974079 697.158842 514.000758 778.155616"></polygon>
                                <polygon id="Shape" fill="#C97D2E" points="298.554646 778.155616 290.225102 647.571042 353.407739 697.158842 365.190996 697.158842 365.190996 778.155616"></polygon>
                                <polygon id="Shape" fill="#97D1E3" points="508.697135 778.211951 596.189261 778.211951 614.133764 754.686447 648.400668 788.859269 778.574352 788.859269 778.574352 751.542953 738.021802 682.893099 519.342179 682.893099"></polygon>
                                <polygon id="Shape" fill="#1C707B" points="529.04502 636.867388 538.353155 692.526387 743.233288 692.526387 693.960881 636.867388"></polygon>
                                <polygon id="Shape" fill="#97D1E3" points="85.726773 634.516477 18.9730706 691.693448 2.38578699 693.413817 2.38578699 705.861193 1.07094134 706.974373 2.38578699 707.68276 2.38578699 786.718539 51.2373601 773.562775 32.0203852 724.886451 132.555507 782.873008 243.103683 782.873008 243.103683 591.912043"></polygon>
                                <polygon id="Shape" fill="#1C707B" points="86.3954133 634.667861 43.9085948 673.259811 229.268748 673.259811 244.174625 591.912043"></polygon>
                                <g id="Group" stroke-width="1" fill="none">
                                    <polygon id="Shape" fill="#97D1E3" points="584.979368 215.028144 622.938749 193.069976 635.996776 206.123449 620.610574 264.003966 611.702772 258.640911"></polygon>
                                    <polygon id="Shape" fill="#A3CA28" points="227.958736 172.326084 442.454545 120.314571 442.454545 127.60023 525.155384 127.60023 525.155384 147.736983 442.454545 147.736983 442.454545 202.07586 227.958736 202.07586"></polygon>
                                    <polygon id="Shape" fill="#1C707B" points="227.958736 172.326084 328.576402 147.939363 328.576402 202.07586 227.958736 202.07586"></polygon>
                                    <polygon id="Shape" fill="#464798" points="593.178594 303.164385 638.527402 272.908661 652.091554 223.022131 598.54352 162.611872 589.635719 162.611872 633.769826 206.224639 618.990974 261.271843 600.466796 192.058079 483.450677 192.058079 453.690522 221.909044"></polygon>
                                    <polygon id="Shape" fill="#252D3F" points="593.178594 303.164385 638.527402 272.908661 642.880077 257.021875 578.197292 294.36088"></polygon>
                                    <polygon id="Shape" fill="#222428" points="250.63314 152.189331 295.172147 83.9874632 324.426177 20.8450812 450.147647 0 542.970986 84.3922221 538.820761 94.005245 549.449387 94.005245 567.771115 148.242932 530.014184 148.242932 443.365571 128.612127"></polygon>
                                    <polygon id="Shape" fill="#252D3F" points="232.007737 290.110912 187.26628 270.986056 159.530625 215.331713 220.265635 149.15364 432.939394 125.272867 573.136041 154.719074 574.553191 159.980939 443.264346 131.14187 235.145712 186.897403 473.733075 186.897403 473.733075 228.587566"></polygon>
                                    <polygon id="Shape" fill="#222428" points="232.007737 290.110912 187.26628 270.986056 159.530625 215.331713 177.245003 196.105667 221.682785 273.11104 298.613798 273.11104"></polygon>
                                    <polygon id="Shape" fill="#222428" points="384.047711 215.534092 381.921986 205.111552 343.355255 215.432903 332.625403 235.266087 330.094778 225.855443 284.13862 248.521939 274.319794 266.12895 204.373308 289.402584 184.128304 277.664577 184.229529 280.599079 207.916183 295.170398 195.971631 292.843034 176.435203 333.5213 187.974855 340.199821 198.704707 340.199821 197.996132 342.729564 171.373952 342.729564 162.466151 337.670078 164.389426 344.652168 182.407479 344.652168 178.560928 348.497378 185.950355 413.359985 209.333333 428.336062 209.333333 380.776897 215.305609 419.330178 249.82334 439.264552 246.280464 440.984777 246.280464 476.299987 237.878788 481.258283 269.562218 525.478189 315.6196 531.853141 392.145712 245.891007"></polygon>
                                    <polygon id="Shape" fill="#222428" points="529.305609 541.061405 553.194713 490.567737 551.372663 481.157094 589.129594 469.115517 610.589297 448.270436 609.273372 446.95497 588.825919 465.371498 558.053514 457.073941 580.525467 457.073941 600.466796 422.568249 585.283043 413.764744 610.690522 413.764744 629.518375 432.58603 645.714378 423.175387 606.236622 400.407701 623.748549 405.163618 652.597679 368.9377 639.640877 355.985416 633.466151 355.985416 638.729852 336.658181 618.788524 322.997569 608.463572 325.729692 616.764023 317.432135 579.918117 267.343226 568.07479 274.224127 576.375242 259.855187 572.731141 257.730203 566.45519 268.557503 566.45519 256.920686 511.287556 209.766279 448.629271 209.766279 448.629271 213.611488 502.68343 553.102981"></polygon>
                                    <polygon id="Shape" fill="#5B2734" points="517.563507 261.474223 530.216634 257.629014 539.934236 289.908533 539.934236 327.146348 499.64668 285.051426"></polygon>
                                    <polygon id="Shape" fill="#252D3F" points="496.103804 555.936293 544.691812 517.78777 558.458414 579.007548 565.84784 572.632596 708.878788 644.072534 769.310123 695.881668 785 769.54778 695.314636 646.804657 583.258543 646.804657 593.68472 676.655622 527.584784 738.178969 509.364281 791 502.88588 673.721121"></polygon>
                                    <polygon id="Shape" fill="#252D3F" points="305.699549 537.317385 268.853643 497.043879 251.746615 562.817193 243.041264 559.781502 110.942618 616.650122 2.5306254 693.250736 0 720.369579 88.5718891 636.786875 219.253385 619.078675 200.324307 653.887937 278.874919 714.500576 300.334623 786.244083 307.319149 633.953563 315.518375 588.72176"></polygon>
                                    <polygon id="Shape" fill="#DC3F6A" points="456.322373 549.156582 521.005158 493.906998 502.88588 673.721121 483.450677 689.810285 435.976144 590.239606"></polygon>
                                    <polygon id="Shape" fill="#EE8536" points="452.577047 604.709735 467.457124 632.941666 480.616377 625.352437 496.407479 566.156454 506.529981 603.697838 483.450677 689.810285 447.718246 689.810285 430.712444 679.994883 415.933591 694.667392 345.48098 675.744915 345.48098 604.709735"></polygon>
                                    <polygon id="Shape" fill="#92569D" points="455.715023 610.679928 467.457124 632.941666 473.63185 629.400026 473.63185 660.364078 455.715023 660.364078"></polygon>
                                    <polygon id="Shape" fill="#DC3F6A" points="311.1657 638.30472 341.634429 671.697326 397.206963 616.245363 447.313346 616.245363 447.313346 639.518997 455.715023 639.518997 464.622824 578.19803 328.373952 555.531534 311.874275 579.715876"></polygon>
                                    <polygon id="Shape" fill="#862F59" points="293.856222 494.716515 307.319149 633.953563 318.251451 646.602277 318.251451 582.245619 368.560284 614.929896 392.145712 581.132532 426.562218 586.495587 455.715023 578.703979 455.715023 639.721376 473.63185 629.400026 473.63185 536.912626"></polygon>
                                    <polygon id="Shape" fill="#684388" points="268.954868 353.556863 268.954868 416.496866 299.423598 512.121146 304.383623 513.133043 303.877498 518.091339 349.631206 571.418319 367.446809 581.233721 324.021277 417.002814"></polygon>
                                    <polygon id="Shape" fill="#684388" points="531.73501 470.026225 510.275306 517.78777 501.772405 521.228221 505.31528 525.07343 458.144423 575.870666 422.007092 581.84086 416.743391 574.352821 418.362992 538.025713 496.103804 471.442881"></polygon>
                                    <polygon id="Shape" fill="#DC3F6A" points="504.30303 358.818728 542.464861 363.777024 542.464861 445.740693 531.73501 470.026225"></polygon>
                                    <polygon id="Shape" fill="#92569D" points="509.465506 299.926314 525.256609 299.926314 542.464861 329.97966 542.464861 363.777024 518.980658 363.777024 486.791103 329.97966"></polygon>
                                    <polygon id="Shape" fill="#A3CA28" points="419.982592 562.210055 419.982592 581.233721 400.952289 579.108737 367.446809 581.233721 342.747905 544.704234 327.867827 505.240246 346.69568 492.793911 417.553191 525.984137"></polygon>
                                    <polygon id="Shape" fill="#F6B585" points="397.409413 532.257899 367.851709 532.257899 381.415861 570.001663 398.016763 570.001663 403.584139 560.38864 419.982592 571.721888 454.905222 571.721888 454.905222 559.882692 482.640877 516.978253 482.640877 487.532046 395.587363 487.532046 395.587363 489.758219 353.882656 500.28195 362.588008 506.859281"></polygon>
                                    <polygon id="Shape" fill="#FDE5A9" points="369.977434 538.025713 381.415861 570.001663 398.016763 570.001663 403.584139 560.38864 419.982592 571.721888 419.982592 538.025713"></polygon>
                                    <polygon id="Shape" fill="#F29956" points="473.22695 531.549571 482.640877 516.978253 482.640877 487.532046 395.587363 487.532046 395.587363 489.758219 359.551257 498.865294 358.235332 503.62121 362.588008 506.859281 388.096712 525.376999 411.479691 532.257899 448.932946 532.257899 448.932946 556.847"></polygon>
                                    <polygon id="Shape" fill="#FDE5A9" points="383.744036 492.793911 359.551257 498.865294 358.943907 501.192657 358.943907 504.127159 362.588008 506.859281 366.637008 509.793783 433.749194 509.793783 433.749194 492.793911"></polygon>
                                    <polygon id="Shape" fill="#F6B585" points="468.874275 487.532046 448.730496 492.793911 438.91167 507.16285 468.874275 507.16285"></polygon>
                                    <polygon id="Shape" fill="#F19612" points="397.409413 532.257899 375.74726 532.257899 375.74726 532.257899 420.893617 532.257899 433.749194 509.793783 392.854288 509.793783 383.440361 522.037738"></polygon>
                                    <polygon id="Shape" fill="#C97D2E" points="435.267569 493.299859 448.528046 496.841499 477.579626 489.151081 477.579626 523.454394 436.077369 560.48983 454.905222 571.418319 502.07608 493.906998 502.07608 448.978764 460.371373 448.978764 429.902643 481.663042"></polygon>
                                    <polygon id="Shape" fill="#AC5133" points="499.241779 480.246386 481.426177 451.508507 481.426177 480.246386"></polygon>
                                    <polygon id="Shape" fill="#C97D2E" points="373.419084 493.603428 365.118633 501.900985 379.897485 509.793783 414.415216 509.793783 397.409413 532.257899 352.060606 509.996162 342.747905 544.704234 308.432624 493.906998 303.776273 444.020468 336.471954 424.389664 375.74726 459.704874"></polygon>
                                    <polygon id="Shape" fill="#A3CA28" points="366.333333 500.787898 365.118633 501.900985 365.219858 501.900985 358.437782 508.984265 339.609929 497.448638 349.732431 487.329666 370.888459 496.031982"></polygon>
                                    <polygon id="Shape" fill="#AC5133" points="306.711799 474.883331 303.776273 444.020468 312.17795 438.960982 334.649903 438.960982 341.330754 455.657285 309.950999 487.026097"></polygon>
                                    <polygon id="Shape" fill="#862F59" points="315.01225 503.7224 308.432624 493.906998 303.776273 444.121658 315.01225 441.794294"></polygon>
                                    <polygon id="Shape" fill="#AD73AE" points="320.174726 434.205066 336.067054 424.592043 339.407479 427.020596 356.716957 442.603812 340.217279 456.669183"></polygon>
                                    <polygon id="Shape" fill="#AD73AE" points="351.048356 437.443137 372.609284 456.871562 372.609284 483.079698 336.067054 483.079698 336.067054 452.419215"></polygon>
                                    <polygon id="Shape" fill="#862F59" points="368.965184 492.793911 357.830432 483.079698 339.913604 483.079698 346.69568 492.793911"></polygon>
                                    <polygon id="Shape" fill="#AD73AE" points="376.35461 484.091595 360.664732 491.984393 379.290135 507.466419 434.761444 507.466419 448.123146 490.061788 420.792392 483.585647"></polygon>
                                    <polygon id="Shape" fill="#684388" points="376.35461 484.091595 360.664732 491.984393 368.357834 498.359345 383.744036 484.091595 383.744036 484.091595"></polygon>
                                    <polygon id="Shape" fill="#EED14B" points="435.672469 506.353332 443.871696 495.627223 418.666667 488.847512 398.219213 494.311756 381.213411 490.871306 396.802063 506.353332"></polygon>
                                    <polygon id="Shape" fill="#FEFEFE" points="418.767892 488.948702 418.666667 488.847512 404.495164 492.591531 404.495164 495.728412 418.767892 495.728412"></polygon>
                                    <polygon id="Shape" fill="#C97D2E" points="361.575758 411.33619 340.925854 435.722912 367.041908 463.651273 406.924565 472.353588 452.273372 426.514648"></polygon>
                                    <polygon id="Shape" fill="#A3CA28" points="344.06383 431.978892 341.634429 434.913394 341.634429 436.532429 367.041908 463.651273 368.459059 463.954842 368.459059 431.978892"></polygon>
                                    <polygon id="Shape" fill="#A3CA28" points="393.056738 469.317897 406.924565 472.353588 415.731141 463.448893 415.731141 449.889472 393.056738 449.889472"></polygon>
                                    <polygon id="Shape" fill="#EED14B" points="476.466151 424.895612 488.714378 453.532301 473.935525 453.532301 461.687299 480.549955 384.250161 480.549955 378.277885 477.008315 339.103804 477.008315 391.639587 442.300243 402.470664 465.371498 406.21599 466.383395 412.491941 436.734809 430.813669 436.734809 438.203095 424.895612"></polygon>
                                    <polygon id="Shape" fill="#FEFEFE" points="395.182463 449.889472 402.470664 465.371498 406.21599 466.383395 409.65764 449.889472 418.362992 449.889472 439.012895 475.591659 419.375242 475.591659 397.611863 480.549955 385.363636 471.948829 385.363636 469.419087 368.661509 469.419087 382.833011 449.889472"></polygon>
                                    <polygon id="Shape" fill="#FDE5A9" points="441.847195 418.62185 433.647969 432.78841 446.807221 455.556096 477.478401 438.455034 469.481625 423.478956"></polygon>
                                    <polygon id="Shape" fill="#92569D" points="430.105093 241.641039 354.186331 250.140975 388.805287 204.302034 420.083817 204.302034"></polygon>
                                    <polygon id="Shape" fill="#862F59" points="321.186976 340.4022 268.954868 360.235384 268.954868 296.789433 284.94842 285.860944 335.864603 285.860944"></polygon>
                                    <polygon id="Shape" fill="#684388" points="323.211476 332.914161 322.502901 335.646284 302.359123 335.646284 302.359123 319.455929 323.211476 319.455929"></polygon>
                                    <polygon id="Shape" fill="#DC3F6A" points="302.055448 290.414481 291.426821 295.372777 298.917473 308.325061 315.01225 300.533453"></polygon>
                                    <polygon id="Shape" fill="#DC3F6A" points="348.214055 483.079698 359.652482 483.079698 378.682785 469.419087 385.363636 469.419087 399.636364 479.335679 413.200516 472.657157 423.323017 472.657157 443.163121 484.091595 460.675048 484.091595 456.322373 487.228476 421.500967 484.496354 399.940039 489.45465 378.17666 483.788026 355.097357 487.835615"></polygon>
                                    <polygon id="Shape" fill="#F29956" points="382.934236 469.419087 385.363636 469.419087 399.636364 479.335679 413.200516 472.657157 423.323017 472.657157 428.384268 475.591659 410.46744 475.591659 399.535139 480.853524"></polygon>
                                    <polygon id="Shape" fill="#862F59" points="348.214055 483.079698 359.652482 483.079698 368.155384 477.008315 381.618311 477.008315 399.535139 486.823718 405.001289 486.823718 436.583495 480.246386 443.163121 484.091595 460.675048 484.091595 456.322373 487.228476 421.500967 484.496354 399.940039 489.45465 378.17666 483.788026 355.097357 487.835615"></polygon>
                                    <polygon id="Shape" fill="#AC5133" points="391.639587 418.62185 398.421663 429.550339 387.691812 429.550339 375.13991 435.520532 363.195358 423.580146 369.774984 412.246898"></polygon>
                                    <polygon id="Shape" fill="#A3CA28" points="323.717602 329.170142 287.883946 329.170142 268.954868 360.235384 303.573823 493.906998 308.432624 493.906998 308.432624 454.746578 337.484204 431.978892"></polygon>
                                    <polygon id="Shape" fill="#EED14B" points="337.484204 431.978892 325.640877 343.539081 275.433269 367.622234 320.883301 431.978892"></polygon>
                                    <path d="M285.859446,425.60394 L294.058672,457.073941 L303.776273,457.073941 L303.776273,425.60394 L285.859446,425.60394 Z M295.273372,461.931048 L297.803997,471.64526 L303.776273,471.64526 L303.776273,461.931048 L295.273372,461.931048 Z" id="Shape" fill="#EED14B"></path>
                                    <polygon id="Shape" fill="#FDE5A9" points="376.35461 412.651657 346.49323 441.996674 324.021277 417.002814 327.159252 405.467187 308.230174 405.467187 308.230174 335.443904 316.125725 329.170142 348.821406 318.747601 378.98646 318.747601 380.504836 397.37201"></polygon>
                                    <polygon id="Shape" fill="#EED14B" points="376.35461 412.651657 357.627982 431.068185 357.627982 369.747218 379.59381 350.318792 380.504836 397.37201"></polygon>
                                    <polygon id="Shape" fill="#FEFEFE" points="373.115409 415.889728 356.615732 431.978892 337.484204 431.978892 331.107028 424.895612 352.870406 387.151849 372.204384 406.479084"></polygon>
                                    <polygon id="Shape" fill="#FEFEFE" points="308.230174 364.890111 308.230174 351.02712 348.31528 333.5213 356.716957 364.890111"></polygon>
                                    <polygon id="Shape" fill="#F29956" points="315.6196 318.241653 348.821406 319.557119 348.821406 329.170142 315.6196 329.170142"></polygon>
                                    <polygon id="Shape" fill="#E86587" points="327.969052 329.170142 315.6196 329.170142 315.6196 321.985672"></polygon>
                                    <polygon id="Shape" fill="#E86587" points="369.673759 368.330562 369.673759 307.211974 399.940039 307.211974 399.940039 358.818728"></polygon>
                                    <polygon id="Shape" fill="#F8B847" points="378.17666 310.652424 398.016763 322.086862 386.679562 283.83715 359.956157 283.83715 359.956157 305.997697"></polygon>
                                    <polygon id="Shape" fill="#92569D" points="349.732431 309.033389 358.640232 299.319176 378.98646 311.057183 378.98646 330.182039"></polygon>
                                    <polygon id="Shape" fill="#F29956" points="499.950355 332.408213 531.73501 364.181783 531.73501 470.026225 502.07608 493.906998 484.867827 429.752718 472.2147 372.47934 481.324952 328.866573"></polygon>
                                    <polygon id="Shape" fill="#EED14B" points="490.030303 449.079954 484.867827 429.752718 472.2147 372.47934 476.567376 351.634259 515.336557 369.443648 515.336557 424.794422 490.333978 449.788282"></polygon>
                                    <polygon id="Shape" fill="#FDE5A9" points="489.422953 328.866573 489.422953 366.205578 476.567376 379.056671 502.07608 423.276577 502.07608 493.906998 467.355899 426.514648 431.117344 426.514648 412.491941 356.896124 424.436493 312.372649 481.729852 312.372649"></polygon>
                                    <path d="M489.422953,357.604452 L489.422953,366.205578 L479.199226,376.425739 L445.491296,356.997314 L464.521599,345.967635 L489.422953,357.604452 Z M481.223727,453.532301 L474.340426,440.276449 L484.969052,434.205066 L496.103804,453.532301 L481.223727,453.532301 Z M471.303675,434.205066 L467.355899,426.514648 L437.190845,426.514648 L458.448098,389.681591 L483.248227,427.324165 L471.303675,434.205066 Z" id="Shape" fill="#FEFEFE"></path>
                                    <polygon id="Shape" fill="#C97D2E" points="448.932946 321.378534 447.212121 326.640399 455.208897 337.973647 458.549323 326.33683"></polygon>
                                    <polygon id="Shape" fill="#E86587" points="422.918117 404.25291 441.34107 400.71127 436.785945 388.669694 436.785945 364.181783 422.918117 350.419982"></polygon>
                                    <polygon id="Shape" fill="#AC5133" points="347.404255 300.128694 360.462282 305.997697 371.192134 285.557375 354.186331 274.122937 315.01225 282.825253 315.01225 303.265575"></polygon>
                                    <polygon id="Shape" fill="#862F59" points="343.760155 276.450301 315.01225 282.825253 315.01225 300.533453 343.760155 300.533453 343.760155 300.533453"></polygon>
                                    <polygon id="Shape" fill="#F29956" points="401.458414 401.318409 375.848485 396.461302 367.548034 387.455418 370.787234 357.705642 401.458414 331.193936"></polygon>
                                    <polygon id="Shape" fill="#A3CA28" points="414.718891 426.514648 431.421019 426.514648 441.34107 412.550467 441.34107 400.71127 425.954868 400.71127"></polygon>
                                    <polygon id="Shape" fill="#222428" points="353.275306 271.390815 330.904578 271.390815 327.867827 273.616989 321.794326 270.176538 298.006447 283.73596 283.53127 283.73596 293.147647 297.80133 321.186976 287.783549 331.005803 290.110912 352.870406 290.110912 364.308833 282.218114"></polygon>
                                    <polygon id="Shape" fill="#A3CA28" points="502.582205 322.89638 499.950355 332.408213 494.382979 337.973647 455.208897 337.973647 455.208897 322.89638"></polygon>
                                    <polygon id="Shape" fill="#EED14B" points="493.168279 328.866573 463.104449 328.866573 468.064475 333.31892 493.168279 333.31892"></polygon>
                                    <polygon id="Shape" fill="#92569D" points="502.582205 322.89638 499.950355 332.408213 494.382979 337.973647 489.422953 337.973647 489.422953 322.89638"></polygon>
                                    <polygon id="Shape" fill="#E86587" points="489.422953 333.31892 489.422953 328.866573 493.168279 328.866573 493.168279 333.31892"></polygon>
                                    <polygon id="Shape" fill="#EED14B" points="408.139265 301.64654 429.902643 324.616605 429.902643 391.300627 408.139265 366.913906"></polygon>
                                    <polygon id="Shape" fill="#92569D" points="399.332689 418.115901 395.182463 429.550339 388.501612 424.187284 383.845261 419.127798"></polygon>
                                    <polygon id="Shape" fill="#FDE5A9" points="416.642166 355.783037 439.620245 400.91365 414.820116 429.550339 395.182463 429.550339 395.182463 414.97902"></polygon>
                                    <polygon id="Shape" fill="#A3CA28" points="417.451966 426.514648 414.820116 429.550339 395.283688 429.550339 395.283688 426.514648"></polygon>
                                    <polygon id="Shape" fill="#E86587" points="387.286912 392.818473 367.548034 392.818473 366.130883 416.901625 377.36686 424.187284 383.136686 420.240885 385.464861 421.455162 393.664088 421.455162"></polygon>
                                    <polygon id="Shape" fill="#F29956" points="367.041908 401.318409 366.130883 416.901625 369.774984 419.228988 377.36686 411.639759"></polygon>
                                    <polygon id="Shape" fill="#F8B847" points="451.564797 229.194704 448.123146 211.284124 441.847195 202.480619 424.942618 202.480619 410.87234 219.78406 413.605416 209.766279 400.041264 209.766279 388.906512 229.194704"></polygon>
                                    <polygon id="Shape" fill="#A3CA28" points="394.271438 288.390687 390.627337 241.742228 360.867182 241.742228 340.520954 267.343226 369.572534 288.390687"></polygon>
                                    <polygon id="Shape" fill="#FDE5A9" points="448.629271 279.081233 447.819471 248.117181 414.516441 280.599079 423.120567 293.348983"></polygon>
                                    <polygon id="Shape" fill="#FDE5A9" points="454.803997 217.760266 453.488072 220.593578 393.866538 220.593578 378.17666 246.801714 452.374597 246.902904 469.684075 223.52808 463.205674 220.998337 463.205674 220.593578 462.193424 220.593578"></polygon>
                                    <polygon id="Shape" fill="#F29956" points="444.883946 248.31956 444.883946 227.575668 428.181818 227.575668 424.942618 224.236408 444.883946 224.236408 448.325596 224.236408 463.711799 224.236408 459.865248 220.593578 444.883946 220.593578 444.883946 202.07586 476.668601 211.688883 483.248227 220.694768 483.248227 220.694768 490.738878 275.944352 478.895551 284.950237 441.239845 285.456185 444.883946 278.271715"></polygon>
                                    <polygon id="Shape" fill="#E86587" points="441.54352 296.384674 448.629271 279.081233 412.795616 285.354996 412.795616 296.384674"></polygon>
                                    <polygon id="Shape" fill="#FDE5A9" points="383.845261 281.813356 392.955513 317.128566 392.955513 381.991173 377.56931 401.014839 395.283688 426.514648 395.283688 421.455162 396.397163 398.889855 404.292714 296.283485"></polygon>
                                    <polygon id="Shape" fill="#E86587" points="508.959381 279.485992 482.337202 281.003838 482.337202 214.623385 521.005158 238.099399 528.192134 266.533709"></polygon>
                                    <polygon id="Shape" fill="#92569D" points="526.268859 258.742101 528.192134 266.533709 509.667956 279.081233 493.775629 268.861072"></polygon>
                                    <polygon id="Shape" fill="#F29956" points="438.30432 319.860688 429.902643 324.616605 411.27724 313.890495 411.27724 293.348983 455.715023 293.348983"></polygon>
                                    <polygon id="Shape" fill="#EE8536" points="517.057382 280.19432 524.952934 295.878726 510.174081 313.991685 485.880077 301.140591 485.880077 280.19432"></polygon>
                                    <polygon id="Shape" fill="#DC3F6A" points="521.612508 299.926314 510.174081 313.991685 497.217279 307.110784 497.217279 299.926314"></polygon>
                                    <polygon id="Shape" fill="#E86587" points="456.119923 307.313164 434.660219 321.985672 437.595745 324.110656 459.662798 310.955993"></polygon>
                                    <polygon id="Shape" fill="#862F59" points="456.119923 307.313164 447.212121 313.485736 447.212121 318.444032 459.662798 310.955993"></polygon>
                                    <polygon id="Shape" fill="#DC3F6A" points="474.644101 305.289369 476.567376 301.140591 489.726628 301.140591 508.858156 315.408341 503.08833 323.705897"></polygon>
                                    <polygon id="Shape" fill="#862F59" points="497.217279 306.807215 508.858156 315.408341 503.08833 323.705897 497.217279 319.860688"></polygon>
                                    <polygon id="Shape" fill="#F29956" points="464.015474 311.563132 488.107028 310.854804 475.352676 301.54535 464.015474 301.54535"></polygon>
                                    <polygon id="Shape" fill="#92569D" points="464.015474 311.563132 471.4049 311.360752 471.4049 301.54535 464.015474 301.54535"></polygon>
                                    <polygon id="Shape" fill="#464798" points="489.018053 288.593066 441.239845 285.456185 425.448743 312.676218 432.230819 319.557119 462.699549 301.039401 489.018053 297.90252"></polygon>
                                    <polygon id="Shape" fill="#252D3F" points="458.245648 303.771524 462.699549 301.039401 476.769826 299.825125 487.196003 289.402584 450.957447 289.402584 450.957447 303.771524"></polygon>
                                    <polygon id="Shape" fill="#A3CA28" points="358.943907 317.432135 349.529981 322.694 338.901354 323.705897 345.177305 307.819112"></polygon>
                                    <polygon id="Shape" fill="#AC5133" points="358.943907 317.432135 350.947131 321.884483 350.947131 312.575029 351.858156 312.575029"></polygon>
                                    <polygon id="Shape" fill="#FEFEFE" points="348.821406 322.79519 338.901354 323.705897 342.44423 314.700013 348.821406 314.700013"></polygon>
                                    <polygon id="Shape" fill="#97D1E3" points="321.895551 306.604836 328.171502 323.705897 315.720825 322.086862 305.497099 315.408341"></polygon>
                                    <polygon id="Shape" fill="#FEFEFE" points="324.021277 312.27146 328.171502 323.705897 315.720825 322.086862 315.6196 322.086862 315.6196 312.27146"></polygon>
                                    <polygon id="Shape" fill="#97D1E3" points="478.794326 327.955865 490.941328 327.955865 494.686654 324.313036 494.889104 324.920174 498.229529 321.479724 484.058027 313.283357"></polygon>
                                    <polygon id="Shape" fill="#FEFEFE" points="478.794326 327.955865 489.422953 327.955865 489.422953 317.938084 482.438427 317.938084"></polygon>
                                    <polygon id="Shape" fill="#A3CA28" points="461.383623 310.955993 468.469375 327.955865 455.411348 327.955865 449.945197 324.818984 447.212121 326.640399 446.098646 320.063068"></polygon>
                                    <polygon id="Shape" fill="#FEFEFE" points="449.945197 324.818984 447.212121 326.640399 446.503546 322.79519 449.945197 322.79519"></polygon>
                                    <polygon id="Shape" fill="#FEFEFE" points="464.217924 317.938084 468.469375 327.955865 455.411348 327.955865 455.411348 317.938084"></polygon>
                                    <polygon id="Shape" fill="#222428" points="460.067698 313.283357 460.067698 322.491621 466.343649 327.955865 478.794326 327.955865 484.564152 321.580913 484.564152 314.700013 497.419729 321.682103 491.953578 327.045158 492.864603 327.955865 499.950355 323.807087 499.950355 332.408213 507.744681 324.515415 485.070277 308.831009 459.359123 308.831009 437.595745 324.110656 439.11412 326.640399 447.212121 326.640399 447.212121 320.872585"></polygon>
                                    <polygon id="Shape" fill="#252D3F" points="441.644745 326.640399 447.212121 326.640399 447.212121 322.79519 441.644745 322.79519"></polygon>
                                    <polygon id="Shape" fill="#252D3F" points="461.788524 321.682103 478.186976 313.789305 482.337202 316.521428 482.337202 320.973775 477.883301 326.23564 467.052224 326.23564"></polygon>
                                    <polygon id="Shape" fill="#464798" points="461.788524 321.682103 465.128949 320.063068 465.635074 320.063068 470.79755 325.324933 470.79755 326.23564 467.052224 326.23564"></polygon>
                                    <polygon id="Shape" fill="#FEFEFE" points="474.644101 312.777408 477.680851 316.521428 479.806576 314.902392 475.453901 312.06908"></polygon>
                                    <polygon id="Shape" fill="#252D3F" points="422.816892 427.324165 419.678917 427.324165 426.258543 421.657541 428.687943 425.097992"></polygon>
                                    <polygon id="Shape" fill="#222428" points="320.275951 308.325061 320.275951 316.319048 328.171502 323.705897 338.901354 323.705897 345.27853 315.61072 345.27853 310.348855 355.805932 316.824997 349.529981 322.694 366.029658 325.021364 368.863959 322.592811 349.732431 309.033389 353.376531 309.033389 374.53256 323.402328 378.37911 319.25355 371.394584 317.128566 363.499033 302.051298 344.367505 291.426378 315.720825 291.426378 296.184397 308.021492 302.764023 320.063068 315.41715 322.694 315.720825 322.086862 307.825274 315.408341"></polygon>
                                    <path d="M342.545455,304.075093 L346.49323,306.908405 L350.036106,306.908405 L342.545455,301.950109 L342.545455,304.075093 Z M339.609929,301.848919 L317.03675,301.848919 L314.101225,304.783421 L339.609929,302.456057 L339.609929,301.848919 Z" id="Shape" fill="#252D3F"></path>
                                    <polygon id="Shape" fill="#464798" points="328.475177 301.848919 327.260477 303.569144 319.972276 304.277472 319.972276 301.848919"></polygon>
                                    <polygon id="Shape" fill="#252D3F" points="322.604126 317.229756 339.002579 309.336958 343.152805 312.06908 343.152805 316.420238 338.698904 321.682103 327.867827 321.682103"></polygon>
                                    <polygon id="Shape" fill="#464798" points="322.604126 317.229756 325.944552 315.61072 326.450677 315.61072 331.613153 320.771396 331.613153 321.682103 327.867827 321.682103"></polygon>
                                    <polygon id="Shape" fill="#FEFEFE" points="335.459703 308.223871 338.496454 312.06908 340.622179 310.348855 336.269504 307.515543"></polygon>
                                    <polygon id="Shape" fill="#222428" points="460.472598 311.461942 471.303675 304.075093 490.131528 304.075093 506.327531 316.723807 502.177305 324.009467 505.31528 327.045158 507.744681 324.515415 510.174081 313.991685 489.018053 297.90252 450.957447 297.295382 429.902643 317.229756 434.660219 321.985672 456.322373 308.831009"></polygon>
                                    <polygon id="Shape" fill="#222428" points="527.888459 284.444288 502.177305 266.12895 485.373952 271.492005 481.223727 277.866957 475.453901 274.628886 444.276596 279.789561 436.88717 293.348983 489.524178 293.348983 507.339781 283.93834 524.952934 295.878726"></polygon>
                                    <path d="M359.652482,271.390815 L381.314636,241.742228 L444.883946,241.742228 L444.883946,254.998081 L416.642166,290.110912 L416.642166,421.455162 L395.283688,421.455162 L395.283688,296.182295 L359.652482,271.390815 Z M447.819471,241.742228 L455.512573,241.742228 L447.819471,251.254062 L447.819471,241.742228 Z" id="Shape" fill="#FEFEFE"></path>
                                    <polygon id="Shape" fill="#252D3F" points="382.124436 420.139696 388.501612 424.187284 388.501612 422.973008 381.719536 417.306384 372.103159 417.306384"></polygon>
                                    <polygon id="Shape" fill="#222428" points="343.65893 486.11539 360.664732 491.984393 378.682785 485.710631 398.421663 490.466547 422.411992 485.81182 448.123146 490.061788 461.687299 486.520148 461.687299 482.776129 456.018698 486.317769 423.323017 483.383267 400.547389 488.240374 382.124436 481.460663 358.032882 485.002303 348.214055 483.079698"></polygon>
                                </g>
                                <polygon id="Shape" fill="#1C707B" points="764.895423 691.456022 769.261569 695.183412 785 768.522327 728.240109 691.456022"></polygon>
                                <polygon id="Shape" fill="#1C707B" points="31.3956042 672.189445 2.53190356 692.430737 0 719.285521 50.3342428 672.189445"></polygon>
                            </g>
                        </g>
                    </g>
                    <mask id="mask-12" fill="white">
                        <use xlink:href="#path-11"></use>
                    </mask>
                    <use id="Mask-Copy-6" fill="url(#linearGradient-8)" xlink:href="#path-11"></use>
                    <path d="M654,309 C658.75,304.25 668.25,304.25 673,309 C677.75,313.75 677.628205,323.371795 673,328 C668.371795,332.628205 668.22843,323.228982 663.476962,318.477514 C658.725495,313.726047 649.25,313.75 654,309 Z" id="Rectangle-3" fill="#F9832E" mask="url(#mask-12)"></path>
                    <path d="M407.091837,101.348939 C418.414804,90.0259721 450.464138,128.58561 482.976703,137.532811 C515.808257,146.567795 549.105054,126.102282 560.535584,137.532811 C583.285584,160.282811 534.793692,171.630602 512.043692,194.380602 C489.293692,217.130602 462.166667,245.166667 440,223 C417.833333,200.833333 384.33481,124.105966 407.091837,101.348939 Z" id="Rectangle-3-Copy-2" fill="#F66222" opacity="0.311662946" mask="url(#mask-12)"></path>
                    <g id="Group-12" mask="url(#mask-12)">
                        <g transform="translate(-203.000000, -82.000000)">
                            <path d="M317,278 C343,252 395,252 421,278 C447,304 499.194651,316.557456 473.186807,342.5653 C447.178963,368.573145 343.666667,408.666667 317,382 C290.333333,355.333333 291,304 317,278 Z" id="Rectangle-3-Copy" fill="#F6744C"></path>
                            <path d="M55.9628799,35.6959587 C101.514162,-9.85532335 444.062577,-8.36312468 479.363785,25.2290658 C487.446543,32.9205177 353.806403,237.557488 418.062975,267.990104 C701.285604,402.127446 595.841872,455.422542 635.326842,552.322096 C689.392294,685.003422 884.203369,617.816656 904.56741,754.409367 C924.931452,891.002077 -170.469442,1147.63305 22.973902,715.067191 C216.417246,282.501329 10.4115979,81.2472408 55.9628799,35.6959587 Z" id="Rectangle-3-Copy-4" fill="#F67B41" opacity="0.592299107"></path>
                            <path d="M487,578 C513,552 565,552 591,578 C617,604 591.963371,604.543588 566.630038,629.876921 C541.296705,655.210255 521.448378,655.884952 495.440347,629.876921 C469.432316,603.86889 461,604 487,578 Z" id="Rectangle-3-Copy-3" fill="#F67B41"></path>
                            <path d="M1455.68893,237.368509 C1483.18893,208.618509 1574.20513,181.987179 1601,210 C1627.79487,238.012821 1583.77016,238.880557 1556.26167,267.639438 C1528.75317,296.398318 1534.04271,349.739447 1491,325 C1447.95729,300.260553 1428.18893,266.118509 1455.68893,237.368509 Z" id="Rectangle-4" fill="#FC8E22" opacity="0.199999988"></path>
                            <path d="M1561.57329,389.5 C1575.07329,375.5 1602.07329,375.5 1615.57329,389.5 C1629.07329,403.5 1628.72714,431.858974 1615.57329,445.5 C1602.41945,459.141026 1554.97876,466.264428 1541.47459,452.260104 C1527.97042,438.255779 1548.07329,403.5 1561.57329,389.5 Z" id="Rectangle-4-Copy" fill="#FC8E22" opacity="0.199999988"></path>
                            <path d="M831.478636,534.010868 C850.984519,513.754759 913.185616,480.854284 933.185616,501.623515 C953.185616,522.392746 1014.67825,513.760868 995.178248,534.010868 C975.678248,554.260868 900.327936,594.85967 880.827936,574.60967 C861.327936,554.35967 811.972753,554.266978 831.478636,534.010868 Z" id="Rectangle-19" fill="url(#linearGradient-13)"></path>
                            <path d="M926,608 C936.717949,596.794872 944.546014,611.862525 955.549412,623.366077 C966.55281,634.869629 981,642.5 970,654 C959,665.5 937,665.5 926,654 C915,642.5 915.282051,619.205128 926,608 Z" id="Rectangle-19-Copy" fill="url(#linearGradient-13)"></path>
                        </g>
                    </g>
                </g>
            </g>
        </g>
    </g>
</svg>