<svg xmlns="http://www.w3.org/2000/svg" xmlns:xlink="http://www.w3.org/1999/xlink" width="638" height="558" viewBox="0 0 638 558">
    <defs>
        <linearGradient id="b" x1="17.113%" y1="16.089%" y2="100%">
            <stop offset="0%" stop-color="#F5A646"/>
            <stop offset="100%" stop-color="#F76322"/>
        </linearGradient>
        <path id="a" d="M80.524 2.082c101.624 11.07 230.556-20.335 338.321 18.304 98.41 35.284 188.146 136.544 41.889 228.98-64.382 40.69-92.541 26.956-131.629 55.113-39.087 28.158-39.087 52.305-105.982 71.772C89.007 415.281-113.902-19.097 80.523 2.082z"/>
        <linearGradient id="d" x1="50%" x2="50%" y1="0%" y2="100%">
            <stop offset="0%" stop-color="#FE7222"/>
            <stop offset="100%" stop-color="#F78940"/>
        </linearGradient>
        <path id="f" d="M110.259 3.154h-46.54L52.215 18.671 34.62 28.828l4.925-15.39-13.578-2.7-15.454 28.857v10.816l-4.508 2.264v38.297l4.508 11.996-7.36 13.714v52.579l20.482 21.207v11.58l33.07-61.87 28.677-3.204-4.158 118.9-3.153 6.56v55.515l46.86 99.726 59.728 22.704 21.814 2.438 6.564 10.135 44.433 13.843-39.017-218.752z"/>
        <filter id="e" width="174.7%" height="141%" x="-37.4%" y="-11.9%" filterUnits="objectBoundingBox">
            <feOffset dy="40" in="SourceAlpha" result="shadowOffsetOuter1"/>
            <feGaussianBlur in="shadowOffsetOuter1" result="shadowBlurOuter1" stdDeviation="25"/>
            <feColorMatrix in="shadowBlurOuter1" values="0 0 0 0 0 0 0 0 0 0 0 0 0 0 0 0 0 0 0.35 0"/>
        </filter>
    </defs>
    <g fill="none" fill-rule="evenodd">
        <g transform="matrix(-1 0 0 1 538 70)">
            <mask id="c" fill="#fff">
                <use xlink:href="#a"/>
            </mask>
            <use fill="url(#b)" xlink:href="#a"/>
            <path fill="#92569D" d="M248.893 202.432L271 433.348l-30.462-79.994v-29.446l-8.132 42.123V451l-22.699-14.202v-49.504l4.51-8.505-5.397-21.824v-67.558l-15.083 61.38h-5.989l10.647-43.327L172 257.875 198.247 164z" mask="url(#c)"/>
            <path fill="url(#d)" d="M87.125 178l2.32-128h6.552l37.63 22.685L122.98 50c15.512-25.876 36.368-39.225 62.57-40.046 65.788-2.06 170.283 50.61 190.112 62.73 65.33 39.931 25.935 55.207 25.11 61.636-.824 6.429-13.705 8.424-12.376 12.213 1.329 3.789 11.89-5.396 18.838 6.21s46.718 25.257 0 25.257H87.124z" mask="url(#c)"/>
            <path fill="#FFE1CA" d="M400.076 151.64c74.274 14.99 92.398 31.482 106.266 71.17 4.294 12.288 47.621 43.254 39.928 59.07-8.87 18.238 17.573 105.565-95.54 44.834-75.408-40.488-124.17-80.475-146.284-119.96 14.238-46.736 46.114-65.107 95.63-55.113z" mask="url(#c)" opacity=".101"/>
            <path fill="#FFE1CA" d="M452.349 271.97c84.972 86.474 43.922 86.474 57.79 126.161 4.294 12.29 27.182 81.933 19.49 97.75-5.914 12.158-37.76 27.102-95.54 44.833C-5.276 425.976-167.01 317.405-51.114 215c173.845-153.607 418.49-29.504 503.462 56.97z" mask="url(#c)" opacity=".101"/>
        </g>
        <g transform="matrix(-1 0 0 1 592 6)">
            <use fill="#000" filter="url(#e)" xlink:href="#f"/>
            <use fill="#FFF" xlink:href="#f"/>
        </g>
        <path fill="#252D3F" d="M413.384 366.321l-80.819 10.359V477l52.172-13.627 7.462-12.517h20.3l58.686-23.739-13.09-30.953z"/>
        <path fill="#C97D2E" d="M429.608 376.16l-24.554 6.075 14.077 25.898 21.532-11.353z"/>
        <path fill="#252D3F" d="M307.13 330.658v51.777l62.316 15.86-2.8-.74-37.442-61.466z"/>
        <path fill="#DC3F6A" d="M471.185 354.023h-43.24v46.732l43.24-3.628z"/>
        <path fill="#1C707B" d="M387.334 400.309l65.9-26.66 9.315-11.356-19.96 29.13-55.192 26.536H365.79l-1.394 2.407h48.601l35.485-19.934-37.956 36.967-53.798 14.01v3.455l113.108-27.154 50.947-102.569-5.07-71.958-20.784.802z"/>
        <path fill="#A3CA28" d="M251.174 206.07l5.182 33.503 4.794.993-7.903 13.773L281.1 360.87l-19.692 52.365 1.943 7.197 26.882-61.113v-20.661l3.822 15.015 19.433-2.296v-97.47l-41.392-80.658z"/>
        <path fill="#464798" d="M270.25 197.843v108.41l25.435 29.324v-55.748zM448.293 58.147l42.203-21.403 55.721 73.982-6.949 39.157-76.444-13.3z"/>
        <path fill="#DC3F6A" d="M286.55 74.867l-24.869 32.848L241 157.848l4.821 43.244h1.777l-4.758-40.783 17.826-40.599v17.839l-14.718 34.755 7.423 53.824 18.65-67.296 23.664-80.09z"/>
        <path fill="#A3CA28" d="M518.352 6l29.775 50.392-10.052-36.682 27.943-7.35 20.103 33.966.063 8.275 4.994 1.174V102.4l-6.511 5.434L592 120.185v56.32l-29.396 28.717-31.799-134.44L494.076 6z"/>
        <path fill="#862F59" d="M388.406 20.403l-22.673-8.365-4.175 1.07L358.668 6h-11.561l-7.708 7.61.578 2.013h-9.441l-6.873 6.793 30.894 30.315 39.052-19.497z"/>
        <path fill="#A3CA28" d="M388.313 17.068l7.84-3.135L388.438 6h-25.352z"/>
        <path fill="#222428" d="M480.087 14.304V6h24.953l22.017 36.996.319 7.932 6.318 1.364 28.08 47.221v41.272l5.87-3.284V50.247l17.997 10.1-12.253 38.67v128.34l-41.226-69.344v-49.824L497.19 49.317z"/>
        <path fill="#F8B847" d="M349.2 39.862l7.528-7.276-3.603-13.059h-36.993L294.13 45.458v14.8l-30.238 39.985 1.03 1.679 17.692-23.07h22.646z"/>
        <path fill="#222428" d="M359.509 57.543l-8.12-29.407h-36.568l-24.74 45.813 1.597 4.21-5.69 1.239-29.727 82.093 24.23 87.727v56.029l15.663 8.729V258.69l12.21 44.204v49.9l47.31-12.259 18.859-265.533z"/>
        <path fill="#28436F" d="M359.488 58.041l-5.82-21.297-13.472 13.125 14.232 13.93h9.93z"/>
        <path fill="#862F59" d="M295.685 186.535l3.036 11.308h21.127l-12.018-17.216z"/>
        <path fill="#252D3F" d="M437.725 52.992l63.012 29.185 18.675 31.41 5.463 3.092-42.05-70.921 34.745 36.79h28.647L475.33 6h-73.683l-17.023 9.584 2.795 4.7-12.133-3.154-9.655 9.398h14.991z"/>
        <path fill="#1C707B" d="M437.224 52.823l34.189 15.895-4.163-6.53-70.333-44.729L448.2 46.416l35.702-9.365L428.898 6h-27.502l-16.905 9.55 2.775 4.682-12.048-3.142-9.588 9.364h14.887z"/>
        <path fill="#222428" d="M366.466 81.706l-9.738-35.325 30.488-17.015 84.396 38.962 23.55 39.518 61.23 46.3v3.452l-80.006-57.52 36.534 35.387v188.28l-39.653 93.584-40.48 10.48 69.44-108.504 7.129-55.176-2.8-.74-46.273 96.605H411.72z"/>
        <path fill="#252D3F" d="M455.973 135.371l21.57 12.052-15.508-26.08-5.68-1.422 10.084-2.658L443.464 78.7l-19.911 5.13-9.254-8.962h-6.701v23.98z"/>
        <path fill="#684388" d="M404.566 101.922l6.847-25.389H374.49l-3.136 5.459-2.624-9.585h-2.303l1.6 5.903-2.432-2.412h-42.49l-12.16 12.123 9.152 9.077z"/>
        <path fill="#EED14B" d="M348.45 379.25l5.7 13.701 33.562 6.574 35.035-19.353 24.275-53.203h-83.008l-31.449 8.785z"/>
        <path fill="#F1A54C" d="M394.88 395.836l26.538-14.7 20.423-44.847 1.366-9.32h-36.75l-9.365 1.814 14.244 12.197-16.456 15.825z"/>
        <path fill="#5B2734" d="M398.595 328.198l6.46 5.474-24.289 16.662h-32.169l-4.586-3.405h12.984z"/>
        <path fill="#252D3F" d="M465.06 154.802h19.612l25.937 31.174v55.27l-20.443 5.279.511 1.739-48.742-47.383z"/>
        <path fill="#862F59" d="M510.609 211.37v29.887l-20.588 5.27.514 1.737-18.078-17.424v-19.47z"/>
        <path fill="#C97D2E" d="M457.17 211.37h27.322l23.573 33.635-52.42 113.12-32.786 21.724 19.443-64.491-5.083-80.968z"/>
        <path fill="#92569D" d="M416.76 96.36l11.61-10.425 32.543 57.247 19.174 9.746-17.74 27.699-45.847-3.517z"/>
        <path fill="#FDE5A9" d="M323.663 321.553l28.255 68.134h34.512l8.45-30.496h-43.8l-16.321-20.745h10.063l-6.516-22.545z"/>
        <path fill="#FEFEFE" d="M339.312 360.298l11.702 28.159h29.877l-14.252-25.4-25.628-2.32-11.702-28.661-1.83-.188z"/>
        <path fill="#FEFEFE" d="M323.663 321.45l7.185 16.587h14.435l-6.658-22.136z"/>
        <path fill="#862F59" d="M462.79 180.195l7.123 25.978-3.594 8.887h-36.515l-36.195-23.802 11.487-16.78 24.066.062z"/>
        <path fill="#92569D" d="M413.957 174.478h15.581l6.817 1.15 20.84 6.202-6.816 11.636H422.59v1.918h-8.634z"/>
        <path fill="#E86587" d="M406.084 174.478l21.862.063v18.662l-15.026 7.1-16.768-10.996z"/>
        <path fill="#F29956" d="M441.131 211.37h26.239l-9.43 22.137h-29.255l-4.555-14.303z"/>
        <path fill="#AC5133" d="M449.52 211.37h2.296l5.38 4.19-5.708 3.19-4.068-1.064v3.877l-14.958 8.254-7.676-4.564-.656-2.127z"/>
        <path fill="#E86587" d="M315.422 223.668l-12.768-8.219-.61-10.102 13.989-.125z"/>
        <path fill="#EED14B" d="M300.772 230.65l1.233-15.679 8.372 5.1 7.269-4.848 24.013-17.38 8.048 1.134 4.478 27.392-25.571 13.286z"/>
        <path fill="#A3CA28" d="M296.129 174.478l13.545 8.633-13.894 7.354-3.91-12.15z"/>
        <path fill="#EED14B" d="M293.683 183.086l-1.813-5.483 2.19-1.895h5.44v7.378z"/>
        <path fill="#F29956" d="M322.646 219.113l13.925.866 4.896-2.72v-8.348h-30.521l2.034 6.925z"/>
        <path fill="#EED14B" d="M392.352 274.089l45.768 35.047-43.05 25.211-51.267-17.679-13.781-37.288z"/>
        <path fill="#F29956" d="M351.641 287.616h-11.445v13.528h11.445z"/>
        <path fill="#FDE5A9" d="M438.12 309.68l-48.47-24.523-15.117 10.802 22.19 21.172zM310.946 280.004l12.063 42.046 18.9-4.116 1.42-4.18-2.387-8.611 20.578 5.445 2.839-12.474-8.838-2.216-7.29 4.116-3.29-7.029-4.515-2.723 3.096-1.456-16.836-13.487z"/>
        <path fill="#FEFEFE" d="M362.666 304.833l1.693-7.659-8.589-2.18-.313.188v9.65zM310.946 279.008l6.679 22.136h9.853v-22.136z"/>
        <path fill="#AC5133" d="M378.348 328.318l3.81-1.35h11.995l2 3.6-14.931 2.55z"/>
        <path fill="#A3CA28" d="M382.163 327.689l2.578-.72 1.237 2.46h-3.815z"/>
        <path fill="#AC5133" d="M350.37 319.59l30.521 3.223-5.3 7.845-24.583-1.216z"/>
        <path fill="#A3CA28" d="M375.804 328.567v-4.488l-12.074-1.783-1.132 2.275-2.579-2.521h-7.106l4.214 7.194 16.602 1.414z"/>
        <path fill="#F7C199" d="M360.397 322.05h-6.212l3.81 7.378 5.45-3.557-3.048-3.821zm6.505 4.611l-.762.396-1.582-1.318.996-1.91 1.348 2.832z"/>
        <path fill="#FEFEFE" d="M354.741 322.05h-3.1l3.657 6.148 2.702-4.534z"/>
        <path fill="#F1A54C" d="M438.115 229.817h43.244l-28.766 50.793-14.094 50.048h-42.347l32.289-22.292z"/>
        <path fill="#FDE5A9" d="M351.641 217.52l-20.563 15.387-29.035-2.636v19.31l9.83 28.814h24.83v.613h1.294z"/>
        <path fill="#F8B847" d="M398.501 87.164h24.918v36.563l26.146 25.056-12.102 22.333h-20.646l-41.938 16.89-27.053-44.853z"/>
        <path fill="#FEFEFE" d="M417.772 171.075h-1.514l-40.878 16.93-16.78-28.59-4.415-22.263 44.662-6.946 18.925 32.249z"/>
        <path fill="#EED14B" d="M389.172 199.073l17.154 18.568-23.658 53.988-20.853-22.367 4.974-47.799z"/>
        <path fill="#E86587" d="M363.087 234.431l3-27.82 17.348-7.538-13.63 54.11z"/>
        <path fill="#862F59" d="M394.734 331.172l-11.032 1.015-5.165-1.523-6.25.063-10.458-.824-6.122-1.523-7.78-1.333-5.804-2.538-7.014 3.11 2.232 11.865 15.24 10.85h29.463l19.195-16.688v-2.474l-.638-.571z"/>
        <path fill="#DC3F6A" d="M335.109 328.198l2.103 10.783 13.006 8.894h22.12l9.053-11.696-30.09-3.107-3.506 1.888-7.013-6.762h-5.673zm49.598 8.955l-2.423-.487-2.486 5.117h4.781l.128-4.63z"/>
        <path fill="#F29956" d="M336.38 337.001l.254 1.424 12.944 9.45h11.04V337H336.38zm29.25-.194h-3.299v2.524h2.538l.761-2.524z"/>
        <path fill="#FDE5A9" d="M422.363 229.219h37.376l-32.238 79.303-51.697-29.088 6.101-11.66v-49.025l15.156 3.95h11.11z"/>
        <path fill="#FEFEFE" d="M421.582 229.053h10.773l14.667 13.945-51.333 28.197v18.88l-21.156-11.6L380.698 267v-48.25l15.315 3.887h11.227z"/>
        <path fill="#92569D" d="M358 288.999l9.764 4.766 18.214-10.461v-7.985h-13.52z"/>
        <path fill="#E86587" d="M359.272 289.157l6.147 3.378 6.57-4.19-6.51-1.959-4.46.879z"/>
        <path fill="#862F59" d="M351.838 280.238l-14.186 7.092 10.049 5.205 17.93-6.116-3.547-1.171.591-1.562z"/>
        <path fill="#DC3F6A" d="M397.424 328.198l-31.888-17.232h-11.303l-4.8 1.941-8.208-3.155-7.388 4.733.505 12.196 7.578-1.274 10.166-2.912h9.472l1.515 1.274.442-1.456 14.334 1.941 1.831 1.76 6.504 1.76z"/>
        <path fill="#F29956" d="M343.098 310.55l-1.89-.798-7.371 5.185.126 2.194 1.449-2.726h8.632l-.946-3.855zm25.076 2.127l-2.71-1.596h-3.023v1.596h5.733z"/>
        <path fill="#862F59" d="M397.424 328.198l-26.537-13.527h-18.303l-4.56 3.8v.748l-2.724-.691v-2.36l-11.463 2.475.317 8.116 7.6-1.208 10.196-2.764h9.5l1.52 1.21.444-1.382 14.376 1.842 1.837 1.67 6.524 1.668z"/>
        <path fill="#5B2734" d="M397.424 329.428l-15.057-8.608-4.02 5.087 1.15 1.173 6.57 1.892zM336.38 326.969l5.915-1.115 2.622-.853.366-5.116-6.342-2.754z"/>
        <path fill="#E86587" d="M391.065 205.448l-27.978 7.153v-22.204l19.153-4.851zM404.4 213.83l-8.236.896-5.099 7.68 13.728 6.529 3.138-2.624v4.352l1.307.384v-3.584l1.83 3.008h21.965l-9.152-8.96z"/>
        <path fill="#AD73AE" d="M358 275.51l-29.647-14.949-3.418 3.474 4.164 17.74 11.995 7.071 12.928-6.079z"/>
        <path fill="#A3CA28" d="M331.293 276.548l13.99.9-4.952 8.938-8.17-4.5z"/>
        <path fill="#FEFEFE" d="M335.109 264.201l-7.786-3.64-3.66 3.455 3.793 14.992h7.653z"/>
        <path fill="#FDE5A9" d="M360.41 87.164h47.188l-11.043 40.255 9.63 16.315h-58.359z"/>
        <path fill="#FDE5A9" d="M377.076 184.84l-15.172-42.26L373.3 87.164h-63.505l-14.083 42.198v34.752l-3.841 6.888 4.289 4.158 35.85 12.845z"/>
        <path fill="#FEFEFE" d="M295.752 146.718v19.548l-3.882 6.977 4.334 4.21 36.232 13.012h.13l-13.976-16.028v-40.541z"/>
        <path fill="#E86587" d="M365.503 250.613l6.359-3.58 14.116 27.708-17.55 6.726-13.035-1.666v-.74l-1.208-3.58z"/>
        <path fill="#92569D" d="M383.435 267.94l2.543 7.184-2.543 1.424z"/>
        <path fill="#F1A54C" d="M370.491 185.546v68.174l5.313 5.169-19.844 18.89h-18.308l22.02-80.727z"/>
        <path fill="#FDE5A9" d="M340.547 247.18l-12.554 14.36 3.505 17.468h12.044l12.362-21.695-3.059-11.686 17.142-52.838 14.72-5.222-5.8-4.227-1.656-6.403-14.656 3.854h-37.66l19.69 20.638 1.72.373 4.397 9.635z"/>
        <path fill="#EED14B" d="M336.38 249.493l-10.173 11.833 1.074 5.384zM368.903 195.384l1.084-2.973 14.72-5.098-5.8-4.126-1.656-6.25-14.656 3.762h-37.66l14.337 14.685z"/>
        <path fill="#A3CA28" d="M370.717 192.924l13.99-5.224-5.584-4.28-1.595-6.483-6.81 1.889z"/>
        <path fill="#684388" d="M410.016 176.937l-8.74 11.127 12.66 2.935h14.01v15.406l-37.594 2.506-6.491-6.174-4.241-12.778 1.67-6.052zM324.299 178.901l-20.984-.734 10.492 17.066 31.476 6.3z"/>
        <path fill="#862F59" d="M345.283 203.353v10.477l-12.718-11.344.945-5.872 8.75 3.603z"/>
        <path fill="#AC5133" d="M327.24 194.154l7.869 4.275-2.623 4.333-11.366-1.662.062-6.768z"/>
        <path fill="#684388" d="M311.713 194.154h9.407v7.379l-11.397-1.627-2.593-4.183z"/>
        <path fill="#862F59" d="M308.357 202.762l2.589-4.865-2.385-3.743-5.246 3.618z"/>
        <path fill="#AC5133" d="M315.651 217.52h20.157l3.116 2.966-12.527 5.642-13.29-4.77 1.272-1.977-2.797 1.454-.636-.524 3.878-2.035z"/>
        <path fill="#684388" d="M396.607 210.141l-1.727 6.149h11.446z"/>
        <path fill="#97D1E3" d="M397.652 210.141l-1.5 6.149h2.544v-5.408z"/>
        <path fill="#862F59" d="M388.522 208.769l5.033 5.061 12.771-11.957v-7.719h-1.51l-13.274 13.856z"/>
        <path fill="#AC5133" d="M410.146 202.355l-5.092-2.617v-5.584h21.077l11.989 8.608z"/>
        <path fill="#862F59" d="M419.043 194.154h7.17l11.907 8.608-19.077-.29z"/>
        <path fill="#92569D" d="M406.326 212.518v4.974l.752.186 5.078 2.301h18.369v-.497l11.41-7.773-2.759-2.798z"/>
        <path fill="#862F59" d="M433.033 217.52l8.902-5.88-2.798-2.729-6.104.606z"/>
        <path fill="#A3CA28" d="M407.598 214.068v4.76l.748.18 5.05 2.2h13.278l-5.922-5.652-10.848-1.726z"/>
        <path fill="#97D1E3" d="M421.587 219.98h-12.97l-12.465-7.085 6.644-6.758 12.59-2.145z"/>
        <path fill="#FEFEFE" d="M421.587 217.52h-13.396l-3.137-1.6v-9.468h12.285z"/>
        <path fill="#1C707B" d="M314.76 211.39v4.9l-1.883-.354-4.475-1.712v-5.313z"/>
        <path fill="#A3CA28" d="M326.207 216.29h-12.078l-5.727-6.037v-6.169l13.198-3.781z"/>
        <path fill="#FEFEFE" d="M326.207 216.29h-12.718v-9.838h9.637z"/>
        <path fill="#222428" d="M413.423 203.57v5.8l7.94 8.107 15.119-4.802 1.779-1.746.952 1.435-12.323 7.732h-16.008l-7.56-3.242h-5.018l1.715 1.683h5.781l-1.334.811 4.891 2.744h12.705l1.715-.998 3.875 3.804 13.404-6.298v-2.12h3.24l7.813-4.74-14.166-10.165-17.85-2.058-.699 1.06-.89-6.423h-.57l-.064 4.989h-13.658l-15.69 14.28 6.48 2.745 7.114-10.664z"/>
        <path fill="#AB2933" d="M421.855 205.906l-1.674-.684h-4.953v4.663l6.894 6.405 10.91-3.171-1.94-6.84-2.879 4.601H421.855z"/>
        <path fill="#FEFEFE" d="M421.587 205.222h-3.468v2.46h3.468v-2.46zm-6.359 0h1.734v1.23h-1.734v-1.23z"/>
        <path fill="#222428" d="M319.665 201.903v5.543l5.897 6.616 11.033-1.847 3.742 2.145 4.946-1.847-8.117-11.922-15.726-3.099-1.205 1.37v-4.53l-.38-.178-1.332 3.636h-9.194l-4.82 5.841-3.994-2.145-1.015 3.755 6.404.953 1.332 7.928 9.068 3.398 3.741-2.027h-7.8l-3.614-1.788-.317-8.464z"/>
        <path fill="#AB2933" d="M327.746 204.672l-1.74-.68h-4.886v4.638l6.894 6.43 10.91-3.153-2.008-6.864-2.878 4.576H327.746z"/>
        <path fill="#FEFEFE" d="M327.478 203.992h-3.5v2.46h3.5v-2.46zm-6.358 0h1.786v1.205h-1.786v-1.205z"/>
        <path fill="#222428" d="M354.465 282.697l-6.92 3.198-2.262-2.829 9.635-4.058 13.256 2.398-2.522 4.98zM346.604 327.044l8.027.117-2.719-3.322v-1.399l-11.716-4.08 1.294 6.878 5.114 1.806zm41.106.35l10.68.525 2.85 1.981-6.992-.175-2.007-1.631-6.667-.408-6.668.816 4.143 2.156h-2.395l-3.56-1.166-1.36.525-14.888-1.457 3.754-1.749 1.877 1.457 9.192.175 3.56-3.846 8.48 2.797zM293.907 171.837l5.485-3.508 6.824 3.024.447 1.572 3.316-.786 15.882 5.504 9.248 11.794-1.085 1.028-29.912-10.887-3.445-2.963-6.123-1.089-1.403.786zM462.283 179.508l-35.848-10.168-4.062.631-8.575-1.642-34.172 7.769-1.74 6.442-.581-6.063-2.772.758 4.32 12 43.004-15.032 34.107 6.821z"/>
        <path fill="#FEFEFE" d="M364.359 196.614H344.96l3.78 14.083-7.936 36.938 8.691-2.286 14.864-48.735zm-29.539 63.56l-3.527 9.883 10.015 7.721 4.093-17.604h-10.58z"/>
        <path fill="#222428" d="M310.366 203.544l-4.693-4.45 7.571-4.212h12.515l16.332 6.408 3.192 5.162v-3.323l-3.004-2.788-13.579-7.417H310.68l-8.636 5.459 3.755 7.416zM437.64 205.71l-14.47-9.87h-17.897l-15.675 14.93-2.348-2.312 3.808-1 13.58-13.304h22.086l25.385 19.676z"/>
        <path fill="#1C707B" d="M509.337 6h20.62l27.706 45.872-9.448 15.616z"/>
        <path fill="#FEFEFE" d="M536.043 15.607l8.103-5.918 8.43 20.906z"/>
        <path fill="#A3CA28" d="M583.626 190.465l-9.43 9.347 9.18 9.1 4.809-8.295z"/>
    </g>
</svg>
