<svg xmlns="http://www.w3.org/2000/svg" width="60" height="60" viewBox="0 0 60 60">
    <defs>
        <linearGradient id="a" x1="50%" x2="50%" y1="0%" y2="100%">
            <stop offset="0%" stop-color="#FB9B47"/>
            <stop offset="100%" stop-color="#F66222"/>
        </linearGradient>
    </defs>
    <g fill="none" fill-rule="evenodd">
        <circle cx="30" cy="30" r="30" fill="#F66222" opacity=".05"/>
        <g fill-rule="nonzero" transform="translate(15.6 15.6)">
            <circle cx="15" cy="15" r="15" fill="url(#a)"/>
            <path fill="#FFF" d="M22.386 13.831a.566.566 0 0 0-.311-.963l-4.275-.622a.557.557 0 0 1-.422-.312L15.467 8.06a.565.565 0 0 0-1.015 0l-1.904 3.875a.588.588 0 0 1-.423.312l-4.274.622a.566.566 0 0 0-.311.963l3.089 3.016a.571.571 0 0 1 .163.497l-.726 4.253a.564.564 0 0 0 .822.593l3.823-2.008a.552.552 0 0 1 .526 0l3.823 2.008a.567.567 0 0 0 .822-.593l-.734-4.253a.558.558 0 0 1 .163-.497l3.075-3.016z"/>
        </g>
    </g>
</svg>
