<?xml version="1.0" encoding="UTF-8"?>
<svg width="38px" height="38px" viewBox="0 0 38 38" version="1.1" xmlns="http://www.w3.org/2000/svg" xmlns:xlink="http://www.w3.org/1999/xlink">
    <!-- Generator: Sketch 51.1 (57501) - http://www.bohemiancoding.com/sketch -->
    <title>Group 36</title>
    <desc>Created with Sketch.</desc>
    <defs></defs>
    <g id="Page-1" stroke="none" stroke-width="1" fill="none" fill-rule="evenodd">
        <g id="Home-(bg-export)" transform="translate(-151.000000, -22.000000)" fill-rule="nonzero">
            <g id="Group-5">
                <g id="Group-36" transform="translate(151.000000, 22.000000)">
                    <rect id="Rectangle-path" fill="#FEFEFE" x="0" y="0.00873800525" width="37.9179489" height="37.9179489" rx="7.545598"></rect>
                    <path d="M6.26370756,22.196554 C5.78168344,22.8816226 5.34353405,23.5965338 4.95189071,24.3369943 C4.85568854,24.5201583 4.76459958,24.7049201 4.67862383,24.8912796 C4.59202373,25.0769909 4.5110189,25.2641923 4.43743454,25.4526234 C4.28915981,25.819949 4.17332143,26.1995482 4.09124556,26.587075 C4.01266844,26.9451293 3.99285085,27.3135803 4.03256898,27.6779972 C4.05320044,27.8419929 4.09388509,28.002836 4.15371018,28.1569178 C4.21198109,28.3030089 4.28995035,28.440448 4.38545234,28.5654178 C4.48300313,28.6924833 4.59632076,28.8066241 4.7226769,28.905092 C4.78825161,28.95709 4.85669272,29.005367 4.92767743,29.0496954 C4.99955727,29.0953752 5.07359344,29.1394971 5.15192231,29.1797033 C5.31226123,29.262597 5.47836112,29.3338372 5.64893339,29.3928713 C5.69234514,29.4083965 5.73635633,29.4231397 5.78096693,29.4371009 L5.81420047,29.4478576 L5.84359312,29.4565807 C5.86286541,29.4622178 5.88193822,29.4683078 5.9015915,29.4730623 C5.98018668,29.4941478 6.0598789,29.5109079 6.14030929,29.5232672 C6.48772155,29.5693457 6.84026544,29.5596073 7.18460415,29.4944201 C7.56259298,29.4251954 7.93453616,29.3262791 8.29697685,29.1985906 C9.06519389,28.9196276 9.81794768,28.5997937 10.5520155,28.240458 C10.9295301,28.0619208 11.3079333,27.8782681 11.688419,27.6935841 C12.0694254,27.5099833 12.4527696,27.3260673 12.8394959,27.1451275 C13.6131599,26.7838262 14.4003493,26.4336917 15.2073726,26.118171 C15.6102973,25.9589659 16.0194097,25.8118521 16.4322443,25.6722375 C16.8453571,25.5334397 17.2628305,25.4034538 17.6854862,25.2877603 C18.5345103,25.0541161 19.3989543,24.8806369 20.2723856,24.7686134 C20.7108418,24.7145431 21.1515258,24.6778975 21.5944375,24.6586767 C21.8156201,24.6492349 22.0370265,24.6447467 22.2586566,24.6452122 C22.4822023,24.6447265 22.6972913,24.6529558 22.9141017,24.6585541 C23.347589,24.6748252 23.7810433,24.6990615 24.2137915,24.7364172 C24.6464828,24.7741539 25.0783703,24.8258698 25.5088165,24.8878397 C25.9390643,24.9518047 26.367302,25.0289447 26.7935297,25.1192597 C27.2193771,25.2101595 27.6419391,25.3174382 28.0606641,25.437944 C28.4791908,25.5593615 28.8927604,25.698251 29.3008335,25.8512374 C29.7083425,26.0059064 30.1086889,26.1778306 30.5018729,26.3670101 C31.287695,26.7428255 32.0317378,27.200383 32.7216823,27.7321068 C32.892685,27.8659871 33.0595718,28.0046359 33.2223428,28.1480532 C33.3841839,28.2924422 33.5416495,28.4414601 33.6931578,28.596158 C33.8437505,28.7518772 33.9900306,28.9114682 34.1264057,29.0796855 C34.1948336,29.1635369 34.2612199,29.2490299 34.3255646,29.3361646 C34.3903471,29.4239336 34.4499373,29.5117026 34.5084064,29.6091223 L34.3716812,29.7037732 C34.3063082,29.6297091 34.2308807,29.5543374 34.1571767,29.482315 C34.0825857,29.4099673 34.0060537,29.3395786 33.9275809,29.2711487 C33.7707057,29.1344617 33.6094132,29.0034275 33.4437033,28.8780461 C33.2780472,28.7528303 33.1088145,28.6329697 32.9360053,28.5184644 C32.7638284,28.4033154 32.588438,28.2935144 32.409834,28.1890613 C31.6975627,27.7725546 30.9485812,27.4222732 30.1723062,27.142621 C28.6203893,26.5928429 27.003513,26.2474039 25.3624238,26.1150093 C24.9527598,26.0775708 24.5420118,26.049741 24.1302663,26.0352911 C23.7186615,26.0193331 23.3066062,26.012019 22.8941004,26.0133488 C22.687918,26.0165065 22.4799822,26.0175617 22.280552,26.0247189 C22.079128,26.0316746 21.8778477,26.0429037 21.676711,26.0584062 C21.2745414,26.0897438 20.873653,26.1374635 20.4740459,26.2015655 C19.6720022,26.3302683 18.879583,26.5130769 18.1022146,26.7487396 C17.7112661,26.8650588 17.3224047,26.9917704 16.9356306,27.1288742 C16.5487906,27.2654887 16.1652638,27.4147669 15.7816833,27.5672586 C15.0155145,27.8750765 14.2549889,28.2105178 13.4928714,28.5591803 L12.3454699,29.0871957 C11.9607164,29.2632854 11.5738405,29.4403664 11.1824415,29.6147375 C10.7909717,29.7892113 10.3948691,29.9608766 9.98853339,30.1208686 C9.58260163,30.2815517 9.16766257,30.4336165 8.73697696,30.5652581 C8.29590434,30.7039574 7.8438841,30.8050775 7.3857558,30.8675356 C7.14470274,30.8992045 6.90177523,30.9144456 6.65865423,30.9131536 C6.40504733,30.9114025 6.15213561,30.8863929 5.90309753,30.8384392 C5.77533825,30.8132028 5.64906341,30.7809598 5.52484493,30.7418564 C5.49351937,30.7325219 5.46250898,30.7215807 5.43147664,30.7109527 L5.38552357,30.6949159 L5.34402079,30.6791095 C5.28868574,30.658406 5.23346439,30.6366107 5.17835675,30.6137236 C4.95348355,30.5220809 4.73553332,30.4142932 4.52621192,30.2912043 C4.30744779,30.1634734 4.1025392,30.0133703 3.91478294,29.84331 C3.71896809,29.6668064 3.5464766,29.466037 3.40148772,29.2458662 C3.25596225,29.0223146 3.1431369,28.7791102 3.06643444,28.5236308 C2.99202967,28.2759177 2.94977932,28.0196669 2.94072226,27.7611793 C2.92941004,27.278875 3.00126676,26.7982265 3.15314026,26.3403184 C3.29285963,25.9104972 3.4743333,25.4953909 3.69496341,25.1009419 C3.80251239,24.907087 3.91626404,24.7185402 4.0345348,24.5341784 C4.15379596,24.3503721 4.27846089,24.1713831 4.40644709,23.9958401 C4.53520824,23.8207718 4.66859722,23.6500361 4.80488955,23.482462 C4.94266,23.3159243 5.08214693,23.1516745 5.22711444,22.9925104 C5.5142428,22.6722853 5.81956315,22.3688508 6.141561,22.083712 L6.26370756,22.196554 Z" id="Shape" fill="#FD6A02"></path>
                    <path d="M12.1255108,9.80162525 C12.1255108,9.80162525 14.1763359,9.30490142 13.7450159,11.5059602 L11.6879502,22.0033145 C11.6879502,22.0033145 11.6263434,23.5638 9.95017134,24.6906845 L15.0448154,23.8136844 C15.0448154,23.8136844 13.3439404,23.4217757 13.6204278,22.0108417 L15.6553727,11.6263613 C15.6553727,11.6263613 16.5049001,8.68679003 19.1198327,9.19921354 C21.7347652,9.71163706 20.4758093,12.7467898 20.4758093,12.7467898 C20.4758093,12.7467898 19.3013769,16.2478076 12.3881566,16.4363455 C12.3881566,16.4363455 6.39712247,16.9032707 6.61990919,20.052972 C6.61990919,20.052972 6.89647039,22.5294909 9.35303675,21.9559971 C9.35303675,21.9559971 10.5654342,21.4512533 10.005773,20.618792 C10.005773,20.618792 9.41977312,21.7151219 8.37288808,21.2755547 C7.32600304,20.8359875 7.724259,19.8005433 7.724259,19.8005433 C7.724259,19.8005433 8.06113648,17.4833033 12.1123115,17.0464769 C12.1123115,17.0464769 18.9002006,16.4789404 20.8264795,14.9448076 C22.2892301,13.7798363 23.3920041,11.5412333 22.1419537,9.85533391 C21.6671522,9.21498703 20.9714759,8.72002157 20.1789196,8.63436399 C17.9244703,8.39069423 12.5668882,9.54300184 12.1255108,9.80162525 Z" id="Shape" fill="#FD6A02"></path>
                    <path d="M25.2557166,22.5921599 C25.2557166,22.5921599 23.2048915,23.0888838 23.6362114,20.887825 L25.6932771,10.3904697 C25.6932771,10.3904697 25.754884,8.8299852 27.431057,7.70310068 L22.336412,8.58009979 C22.336412,8.58009979 24.037287,8.97200845 23.7607996,10.3829435 L21.7258547,20.7674239 C21.7258547,20.7674239 20.8763273,23.7069952 18.2613947,23.1945717 C15.6464621,22.6821481 16.9054171,19.6469954 16.9054171,19.6469954 C16.9054171,19.6469954 18.0798494,16.1459776 24.9930708,15.9574397 C24.9930708,15.9574397 30.9841049,15.4905145 30.7613172,12.3408132 C30.7613172,12.3408132 30.484757,9.86429433 28.0281906,10.4377881 C28.0281906,10.4377881 26.8157931,10.9425309 27.3754533,11.7749932 C27.3754533,11.7749932 27.9614532,10.6786633 29.0083383,11.1182295 C30.0552233,11.5577957 29.6569683,12.5932419 29.6569683,12.5932419 C29.6569683,12.5932419 29.3200909,14.9104809 25.2689109,15.3473073 C25.2689109,15.3473073 18.4810227,15.9148448 16.5547429,17.4489766 C15.0919922,18.6139479 13.9892173,20.8525519 15.2392687,22.5384503 C15.7140702,23.1787982 16.4097465,23.6737626 17.2023028,23.7594212 C19.456757,24.003091 24.8143391,22.8507834 25.2557166,22.5921599 Z" id="Shape" fill="#FD6A02"></path>
                </g>
            </g>
        </g>
    </g>
</svg>