<?xml version="1.0" encoding="UTF-8"?>
<svg width="381px" height="381px" viewBox="0 0 381 381" version="1.1" xmlns="http://www.w3.org/2000/svg" xmlns:xlink="http://www.w3.org/1999/xlink">
    <!-- Generator: Sketch 51.1 (57501) - http://www.bohemiancoding.com/sketch -->
    <title>Group 38</title>
    <desc>Created with Sketch.</desc>
    <defs></defs>
    <g id="Page-1" stroke="none" stroke-width="1" fill="none" fill-rule="evenodd">
        <g id="Group-38" fill-rule="nonzero">
            <rect id="Rectangle-path" fill="#FD6A02" x="0" y="0" width="380.17733" height="380.17733" rx="75.45598"></rect>
            <path d="M62.80191,222.46205 C57.968984,229.330764 53.5759599,236.49869 49.64922,243.92278 C48.6846667,245.759253 47.77138,247.611733 46.90936,249.48022 C46.04108,251.34222 45.2289,253.21916 44.49112,255.10843 C43.0044707,258.791353 41.8430386,262.597333 41.02012,266.4828 C40.232281,270.072765 40.0335835,273.766971 40.43181,277.42073 C40.6386663,279.065004 41.0465835,280.677667 41.64641,282.22254 C42.2306502,283.687296 43.0123948,285.065304 43.96993,286.31829 C44.9480051,287.592289 46.0841634,288.7367 47.35105,289.72397 C48.0085227,290.245319 48.6947349,290.72936 49.40645,291.17381 C50.12714,291.63181 50.86945,292.07419 51.6548,292.47732 C53.2624089,293.308435 54.9277788,294.022708 56.63799,294.6146 C57.07325,294.77026 57.51452,294.91808 57.9618,295.05806 L58.29501,295.16591 L58.58971,295.25337 C58.78294,295.30989 58.97417,295.37095 59.17122,295.41862 C59.9592401,295.63003 60.7582595,295.798072 61.56468,295.92199 C65.047945,296.383988 68.5826614,296.286347 72.03511,295.63276 C75.8249442,294.93869 79.5541635,293.946928 83.18811,292.66669 C90.8904951,289.869712 98.437842,286.662952 105.79784,283.06014 C109.58292,281.27007 113.37691,279.42871 117.19178,277.57701 C121.01187,275.73617 124.8554,273.89218 128.73284,272.07801 C136.48984,268.45549 144.38245,264.94493 152.47392,261.78142 C156.51377,260.18518 160.61566,258.71017 164.75487,257.31035 C168.89687,255.91872 173.08259,254.61544 177.32027,253.45546 C185.832854,251.11287 194.500042,249.373512 203.25734,248.25033 C207.65344,247.708203 212.071877,247.340783 216.51265,247.14807 C218.730297,247.053403 220.950187,247.008403 223.17232,247.01307 C225.41366,247.0082 227.57021,247.09071 229.74402,247.14684 C234.0903,247.30999 238.43625,247.55298 242.77512,247.92752 C247.11342,248.30588 251.44366,248.82441 255.75945,249.44573 C260.07325,250.087063 264.366897,250.860497 268.64039,251.76603 C272.91007,252.67741 277.14681,253.75303 281.34508,254.96125 C285.54136,256.17862 289.68794,257.57117 293.77941,259.10506 C297.865223,260.65582 301.879223,262.379587 305.82141,264.27636 C313.700311,268.044404 321.160319,272.632019 328.07792,277.96325 C329.792447,279.305577 331.465707,280.695713 333.0977,282.13366 C334.72037,283.58136 336.29917,285.07545 337.81824,286.6265 C339.32813,288.18779 340.79478,289.7879 342.16212,291.4745 C342.8482,292.31522 343.51381,293.1724 344.15895,294.04604 C344.80848,294.92604 345.40595,295.80604 345.99218,296.7828 L344.62133,297.7318 C343.96588,296.98921 343.20962,296.23351 342.47064,295.51139 C341.722767,294.78601 340.955433,294.080273 340.16864,293.39418 C338.59576,292.0237 336.97859,290.709907 335.31713,289.4528 C333.65621,288.19736 331.95943,286.995603 330.22679,285.84753 C328.50049,284.692997 326.74197,283.592093 324.95123,282.54482 C317.809773,278.368793 310.300248,274.856761 302.51707,272.05288 C286.957059,266.540639 270.745748,263.077162 254.29167,261.74973 C250.18425,261.37435 246.06596,261.09532 241.93767,260.95044 C237.81079,260.79044 233.679393,260.717107 229.54348,260.73044 C227.47623,260.7621 225.3914,260.77268 223.39185,260.84444 C221.37231,260.914173 219.35421,261.02676 217.33755,261.1822 C213.30527,261.496387 209.285837,261.974837 205.27925,262.61755 C197.237707,263.907964 189.292661,265.740862 181.49852,268.10369 C177.578747,269.269937 173.6799,270.540387 169.80198,271.91504 C165.9234,273.28479 162.07804,274.78149 158.23214,276.31042 C150.55029,279.39671 142.92502,282.75994 135.28379,286.25574 L123.77958,291.54974 C119.92192,293.31527 116.04298,295.09074 112.11869,296.83904 C108.19369,298.58837 104.22224,300.30954 100.14819,301.91367 C96.07819,303.52473 91.91788,305.04938 87.59969,306.36926 C83.1773567,307.759903 78.645259,308.773765 74.05192,309.39999 C71.6350459,309.717512 69.199378,309.870324 66.76177,309.85737 C64.2190272,309.839813 61.6832544,309.589059 59.18632,309.10826 C57.9053651,308.855232 56.6392937,308.531954 55.39384,308.13989 C55.07976,308.04631 54.76884,307.93661 54.4577,307.83004 L53.99696,307.66926 L53.58084,307.51077 C53.0260333,307.30319 52.4723667,307.084667 51.91984,306.8552 C49.665192,305.936354 47.4799544,304.855638 45.38123,303.62151 C43.1878296,302.340843 41.133351,300.835862 39.25085,299.13078 C37.2875486,297.361103 35.5580945,295.348129 34.10439,293.14063 C32.6453073,290.899227 31.5140849,288.460779 30.74504,285.89926 C29.9990343,283.41561 29.575419,280.846358 29.48461,278.25468 C29.371191,273.418945 30.0916491,268.599811 31.61438,264.00868 C33.0152505,259.699158 34.8347628,255.537171 37.04687,251.5823 C38.12519,249.63865 39.2657,247.74822 40.45152,245.89975 C41.64727,244.05685 42.8972,242.26225 44.18043,240.5022 C45.47143,238.74691 46.80883,237.03506 48.17534,235.35491 C49.55667,233.68515 50.95521,232.03833 52.4087,230.4425 C55.2875396,227.231823 58.3487779,224.189492 61.57723,221.3306 L62.80191,222.46205 Z" id="Shape" fill="#FFFFFF"></path>
            <path d="M121.5742,98.18658 C121.5742,98.18658 142.13642,93.20627 137.81187,115.27478 L117.18708,220.52458 C117.18708,220.52458 116.56939,236.17049 99.76356,247.46899 L150.84407,238.67592 C150.84407,238.67592 133.79056,234.74652 136.56271,220.60004 L156.96571,116.48196 C156.96571,116.48196 165.48334,87.00889 191.70148,92.14661 C217.91962,97.28433 205.29693,127.71573 205.29693,127.71573 C205.29693,127.71573 193.5217,162.81804 124.20757,164.70838 C124.20757,164.70838 64.13957,169.38992 66.3733,200.96982 C66.3733,200.96982 69.14619,225.80018 93.7765,220.05015 C93.7765,220.05015 105.93238,214.98944 100.32104,206.64291 C100.32104,206.64291 94.44562,217.63506 83.94922,213.22783 C73.45282,208.8206 77.44586,198.43889 77.44586,198.43889 C77.44586,198.43889 80.8235,175.20551 121.44186,170.82576 C121.44186,170.82576 189.49938,165.13545 208.81286,149.75376 C223.47886,138.07339 234.53562,115.62844 222.00222,98.72509 C217.24171,92.30476 210.26664,87.34209 202.32022,86.48325 C179.7164,84.04014 125.99959,95.59354 121.5742,98.18658 Z" id="Shape" fill="#FFFFFF"></path>
            <path d="M253.22179,226.42852 C253.22179,226.42852 232.65957,231.40883 236.98412,209.34032 L257.60891,104.09052 C257.60891,104.09052 258.2266,88.44461 275.03244,77.14611 L223.95192,85.93919 C223.95192,85.93919 241.00543,89.86858 238.23328,104.01506 L217.83028,208.13314 C217.83028,208.13314 209.31265,237.60621 183.09451,232.46849 C156.87637,227.33077 169.49905,196.89937 169.49905,196.89937 C169.49905,196.89937 181.27428,161.79706 250.58842,159.90672 C250.58842,159.90672 310.65642,155.22518 308.42268,123.64528 C308.42268,123.64528 305.6498,98.81492 281.01949,104.56495 C281.01949,104.56495 268.86361,109.62566 274.47494,117.97219 C274.47494,117.97219 280.35036,106.98004 290.84676,111.38727 C301.34316,115.7945 297.35013,126.17621 297.35013,126.17621 C297.35013,126.17621 293.97249,149.40959 253.35408,153.78934 C253.35408,153.78934 185.29657,159.47965 165.98308,174.86134 C151.31708,186.5417 140.26031,208.98665 152.79372,225.89 C157.55423,232.31033 164.5293,237.273 172.47572,238.13184 C195.07959,240.57498 248.7964,229.02156 253.22179,226.42852 Z" id="Shape" fill="#FFFFFF"></path>
        </g>
    </g>
</svg>