<?xml version="1.0" encoding="UTF-8"?>
<svg width="38px" height="38px" viewBox="0 0 38 38" version="1.1" xmlns="http://www.w3.org/2000/svg" xmlns:xlink="http://www.w3.org/1999/xlink">
    <!-- Generator: Sketch 51.1 (57501) - http://www.bohemiancoding.com/sketch -->
    <title>Group 37</title>
    <desc>Created with Sketch.</desc>
    <defs></defs>
    <g id="Page-1" stroke="none" stroke-width="1" fill="none" fill-rule="evenodd">
        <g id="Pesan" transform="translate(-151.000000, -22.000000)" fill-rule="nonzero">
            <g id="Group-5">
                <g id="Group-37" transform="translate(151.000000, 22.000000)">
                    <rect id="Rectangle-path" fill="#3C5269" x="0" y="0.00436850394" width="37.9179489" height="37.9179489" rx="7.545598"></rect>
                    <path d="M6.26370756,22.1921855 C5.78168366,22.8772539 5.34353429,23.5921648 4.95189071,24.3326248 C4.85568854,24.5157901 4.76459958,24.7005522 4.67862383,24.8869111 C4.59202373,25.0726224 4.5110189,25.2598238 4.43743454,25.4482539 C4.2891598,25.8155799 4.17332143,26.1951793 4.09124556,26.5827065 C4.01266841,26.9407607 3.99285082,27.3092118 4.03256898,27.6736287 C4.05320044,27.8376241 4.09388509,27.9984668 4.15371018,28.1525483 C4.21198064,28.2986396 4.28994993,28.4360788 4.38545234,28.5610483 C4.4830026,28.6881143 4.59632029,28.8022551 4.7226769,28.9007225 C4.78825136,28.9527208 4.85669249,29.0009979 4.92767743,29.0453259 C4.99955727,29.0910057 5.07359344,29.1351286 5.15192231,29.1753348 C5.31226123,29.2582285 5.47836112,29.3294687 5.64893339,29.3885028 C5.69234514,29.4040266 5.73635633,29.4187699 5.78096693,29.4327324 L5.81420047,29.4434891 L5.84359312,29.4522112 C5.86286541,29.4578483 5.88193822,29.4639393 5.9015915,29.4686928 C5.98018657,29.4897788 6.05987881,29.5065389 6.14030929,29.5188977 C6.48772152,29.5649768 6.84026549,29.5552383 7.18460415,29.4900506 C7.56259296,29.4208263 7.93453614,29.3219103 8.29697685,29.1942221 C9.0651939,28.9152588 9.81794769,28.5954245 10.5520155,28.2360885 C10.9295301,28.0575523 11.3079333,27.8738986 11.688419,27.6892146 C12.0694254,27.5056148 12.4527696,27.3216988 12.8394959,27.140758 C13.6131599,26.7794567 14.4003493,26.4293212 15.2073726,26.1138015 C15.6102973,25.9545954 16.0194097,25.8074816 16.4322443,25.667868 C16.8453571,25.5290702 17.2628305,25.3990833 17.6854862,25.2833898 C18.5345102,25.0497455 19.3989543,24.8762666 20.2723856,24.7642439 C20.7108418,24.7101729 21.1515258,24.6735273 21.5944375,24.6543072 C21.8156201,24.6448654 22.0370265,24.6403772 22.2586566,24.6408427 C22.4822023,24.640356 22.6972913,24.6485853 22.9141017,24.6541836 C23.347589,24.6704557 23.7810433,24.694692 24.2137915,24.7320477 C24.6464828,24.7697844 25.0783703,24.8215003 25.5088165,24.8834692 C25.9390643,24.9474342 26.367302,25.0245745 26.7935297,25.1148902 C27.2193771,25.20579 27.6419391,25.3130687 28.0606641,25.4335735 C28.4791908,25.554992 28.8927604,25.6938815 29.3008335,25.8468669 C29.7083425,26.0015359 30.1086889,26.1734601 30.5018729,26.3626396 C31.2876946,26.7384558 32.0317373,27.1960132 32.7216823,27.7277363 C32.892685,27.8616173 33.0595718,28.0002664 33.2223428,28.1436837 C33.3841839,28.2880727 33.5416495,28.4370906 33.6931578,28.5917875 C33.8437505,28.7475067 33.9900306,28.9070987 34.1264057,29.075315 C34.1948336,29.1591664 34.2612199,29.2446594 34.3255646,29.3317941 C34.3903471,29.4195631 34.4499373,29.5073321 34.5084064,29.6047518 L34.3716812,29.6994027 C34.3063082,29.6253386 34.2308807,29.5499669 34.1571767,29.4779435 C34.0825857,29.4055965 34.0060537,29.3352081 33.9275809,29.2667782 C33.7707057,29.1300899 33.6094132,28.9990554 33.4437033,28.8736746 C33.2780472,28.7484602 33.1088145,28.6285999 32.9360053,28.5140939 C32.7638284,28.3989436 32.588438,28.2891426 32.409834,28.1846908 C31.6975627,27.7681837 30.9485812,27.417902 30.1723062,27.1382496 C28.6203891,26.5884722 27.0035129,26.2430336 25.3624238,26.1106388 C24.9527598,26.0732003 24.5420118,26.0453706 24.1302663,26.0309206 C23.7186615,26.0149626 23.3066062,26.0076485 22.8941004,26.0089783 C22.687918,26.012135 22.4799822,26.0131912 22.280552,26.0203484 C22.079128,26.0273041 21.8778477,26.0385332 21.676711,26.0540357 C21.2745414,26.085372 20.873653,26.1330914 20.4740459,26.197194 C19.6720024,26.3258977 18.8795832,26.5087063 18.1022146,26.7443681 C17.7112661,26.8606866 17.3224047,26.9873985 16.9356306,27.1245037 C16.5487906,27.2611182 16.1652638,27.4103954 15.7816833,27.5628881 C15.0155145,27.870706 14.2549889,28.2061463 13.4928714,28.5548088 L12.3454699,29.0828252 C11.9607164,29.2589139 11.5738405,29.4359959 11.1824415,29.610367 C10.7909717,29.7848408 10.3948691,29.9565061 9.98853339,30.1164971 C9.58260163,30.2771812 9.16766257,30.429245 8.73697696,30.5608866 C8.29590424,30.6995858 7.84388404,30.8007062 7.3857558,30.8631651 C7.14470269,30.8948335 6.90177522,30.9100746 6.65865423,30.9087831 C6.4050473,30.9070316 6.15213558,30.8820217 5.90309753,30.8340677 C5.77533815,30.8088318 5.64906328,30.7765888 5.52484493,30.7374849 C5.49351937,30.7281514 5.46250898,30.7172102 5.43147664,30.7065812 L5.38552357,30.6905454 L5.34402079,30.674738 C5.28868574,30.6540352 5.23346439,30.6322402 5.17835675,30.6093531 C4.95348353,30.51771 4.7355333,30.4099221 4.52621192,30.2868328 C4.30744757,30.1591023 4.10253894,30.0089991 3.91478294,29.8389385 C3.71896787,29.6624355 3.54647635,29.4616664 3.40148772,29.2414957 C3.25596243,29.017944 3.14313709,28.7747396 3.06643444,28.5192603 C2.99202966,28.2715468 2.94977931,28.0152957 2.94072226,27.7568078 C2.92940992,27.2745035 3.00126664,26.793855 3.15314026,26.3359469 C3.29285945,25.9061257 3.47433312,25.4910194 3.69496341,25.0965704 C3.80251239,24.9027145 3.91626404,24.7141677 4.0345348,24.5298069 C4.15379596,24.3460006 4.27846089,24.1670106 4.40644709,23.9914686 C4.53520824,23.8164003 4.66859722,23.6456646 4.80488955,23.4780906 C4.94266,23.3115528 5.08214693,23.147302 5.22711444,22.9881379 C5.51424331,22.6679133 5.81956363,22.3644788 6.141561,22.0793395 L6.26370756,22.1921855 Z" id="Shape" fill="#FFFFFF"></path>
                    <path d="M12.1255108,9.79725675 C12.1255108,9.79725675 14.1763408,9.30053291 13.7450159,11.5015907 L11.6879502,21.998946 C11.6879502,21.998946 11.6263434,23.5594305 9.95017134,24.686315 L15.0448154,23.8093159 C15.0448154,23.8093159 13.3439404,23.4174072 13.6204278,22.0064722 L15.6553727,11.6219918 C15.6553727,11.6219918 16.5049001,8.68242152 19.1198327,9.19484404 C21.7347652,9.70726656 20.4758093,12.7424203 20.4758093,12.7424203 C20.4758093,12.7424203 19.3013769,16.2434391 12.3881566,16.431977 C12.3881566,16.431977 6.39712247,16.8989012 6.61990919,20.0486025 C6.61990919,20.0486025 6.89647039,22.5251214 9.35303675,21.9516286 C9.35303675,21.9516286 10.5654342,21.4468848 10.005773,20.6144235 C10.005773,20.6144235 9.41977312,21.7107524 8.37288808,21.2711862 C7.32600304,20.8316199 7.724259,19.7961748 7.724259,19.7961748 C7.724259,19.7961748 8.06113648,17.4789348 12.1123115,17.0421083 C12.1123115,17.0421083 18.9002006,16.4745719 20.8264795,14.9404391 C22.2892301,13.7754678 23.3920041,11.5368638 22.1419537,9.85096541 C21.6671522,9.21061753 20.9714759,8.71565307 20.1789196,8.62999449 C17.9244703,8.38632871 12.5668882,9.53863234 12.1255108,9.79725675 Z" id="Shape" fill="#FFFFFF"></path>
                    <path d="M25.2557166,22.5877904 C25.2557166,22.5877904 23.2048915,23.0845143 23.6362114,20.8834565 L25.6932771,10.3861012 C25.6932771,10.3861012 25.754884,8.82561669 27.431057,7.69873218 L22.336412,8.57573029 C22.336412,8.57573029 24.037287,8.96763895 23.7607996,10.378574 L21.7258537,20.7630584 C21.7258537,20.7630584 20.8763263,23.7026227 18.2613907,23.1902031 C15.6464551,22.6777836 16.9054131,19.6426269 16.9054131,19.6426269 C16.9054131,19.6426269 18.0798455,16.1416081 24.9930668,15.9530702 C24.9930668,15.9530702 30.9841009,15.486146 30.7613132,12.3364447 C30.7613132,12.3364447 30.484753,9.85992583 28.0281866,10.4334186 C28.0281866,10.4334186 26.8157891,10.9381624 27.3754493,11.7706237 C27.3754493,11.7706237 27.9614492,10.6742948 29.0083343,11.113861 C30.0552193,11.5534272 29.6569644,12.5888724 29.6569644,12.5888724 C29.6569644,12.5888724 29.3200869,14.9061124 25.2689069,15.3429388 C25.2689069,15.3429388 18.4810187,15.9104753 16.5547389,17.4446081 C15.0919882,18.6095794 13.9892133,20.8481834 15.2392647,22.5340818 C15.7140662,23.1744297 16.4097425,23.6693941 17.2022988,23.7550527 C19.456757,23.9987215 24.8143391,22.8464149 25.2557166,22.5877904 Z" id="Shape" fill="#FFFFFF"></path>
                </g>
            </g>
        </g>
    </g>
</svg>